<svg xmlns="http://www.w3.org/2000/svg" width="1920" height="1080"><path fill="#33003F" d="M0 0h1920v1080H0z"/><path fill="#D5BA32" d="M1185 378h383c-.617 8.631-1.264 17.223-2.121 25.828l-.647 6.617q-.498 5.073-1 10.146c-1.323 13.407-2.52 26.81-3.51 40.246a490 490 0 0 1-2.006 20.676c-1.123 9.698-1.72 19.441-2.393 29.179-.693 9.957-1.564 19.833-2.868 29.73-.638 5.016-1.065 10.037-1.455 15.078l-.508 6.297L1551 568c-1.198 14.925-2.517 29.839-3.875 44.75l-.258 2.842a7893 7893 0 0 1-2.677 29.005q-.663 7.014-1.315 14.028l-.257 2.76c-1.291 13.947-2.294 27.893-2.935 41.887l-.19 3.86-.146 3.31c-.28 2.874-.723 5.499-1.325 8.31-1.115 5.347-1.55 10.624-1.874 16.068l-.193 2.984c-.2 3.107-.39 6.214-.58 9.321l-.406 6.367q-.494 7.753-.969 15.508c-4.632 1.562-9.287 2.956-14 4.25a2457.43 2457.43 0 0 1-15.227 4.164 1527 1527 0 0 0-32.083 9.048 1031 1031 0 0 1-17.94 5.1c-6.114 1.677-12.186 3.464-18.25 5.313-8.89 2.706-17.843 5.13-26.826 7.504-7.795 2.073-15.52 4.319-23.182 6.844-9.582 3.027-17 1.449-26.492-1.223l-2.822-.791a912 912 0 0 1-8.428-2.459l-6.305-1.852-3.225-.95c-13.466-3.966-26.935-7.91-40.47-11.635a1887 1887 0 0 1-10.75-3c-9.752-2.747-19.502-5.47-29.312-8a222 222 0 0 1-17.633-5.336c-5.159-1.65-10.421-2.878-15.684-4.145C1222 771 1222 771 1219 770l-.184-2.922-.254-3.828c-.08-1.253-.162-2.506-.246-3.797-.198-3.215-.198-3.215-.809-5.323-.611-2.567-.776-5.027-.937-7.661l-.216-3.35-.229-3.619c-.65-9.695-1.473-19.344-2.562-29-1.158-10.322-2.11-20.648-2.938-31-1.218-15.183-2.644-30.34-4.125-45.5-1.552-15.892-3.029-31.783-4.3-47.7a866 866 0 0 0-2.763-28.55c-1.086-9.617-1.83-19.212-2.374-28.875-.709-12.534-1.77-25.007-3-37.5-1.716-17.447-3.18-34.901-4.517-52.381-.43-5.581-.889-11.159-1.362-16.736l-.206-2.43a4921 4921 0 0 0-.792-9.262l-.184-2.118-.16-1.826c-.796-9.551-1.31-19.033-1.842-28.622"/><path fill="#244DE3" d="M294 377h381c0 16.778 0 16.778-.914 22.922q-.282 2.02-.556 4.04l-.276 2.027c-.675 5.34-1.037 10.718-1.458 16.084a3607 3607 0 0 1-.944 11.708l-.204 2.499c-.734 8.904-1.564 17.8-2.39 26.695-1.598 17.2-3.03 34.401-4.219 51.633a430 430 0 0 1-2.588 25.844c-.584 4.592-.979 9.183-1.326 13.798-.897 11.258-1.907 22.504-2.937 33.75a21558 21558 0 0 0-4.688 52c-1.46 16.404-2.933 32.806-4.432 49.207-1.648 18.017-1.648 18.017-3.193 36.043l-.227 2.736c-.399 4.843-.775 9.688-1.14 14.534l-.258 3.313q-.241 3.12-.465 6.244c-.208 2.65-.468 5.283-.785 7.923l-.249 2.137c-.353 1.875-.353 1.875-1.751 4.863-2.649 1.353-4.554 2.072-7.375 2.75l-2.196.604c-2.136.58-4.28 1.118-6.429 1.646l-3.094.797q-2.816.712-5.64 1.39c-4.151 1.033-8.27 2.167-12.391 3.313l-2.207.611q-5.802 1.62-11.566 3.366c-5.176 1.56-10.383 2.99-15.602 4.398l-5.844 1.586-2.902.788a2287 2287 0 0 0-13.91 3.854q-6.208 1.73-12.43 3.4c-8.58 2.308-17.084 4.632-25.476 7.56-4.39 1.4-8.853 2.477-13.334 3.543-2.97.71-5.83 1.476-8.706 2.511-6.73 2.05-12.279.11-18.773-1.867q-2.823-.836-5.648-1.664l-2.812-.825c-3.7-1.056-7.425-1.985-11.165-2.886-5.666-1.377-11.218-2.99-16.777-4.746-7.617-2.31-15.322-4.313-23.004-6.39-3.975-1.08-7.94-2.19-11.906-3.302a938 938 0 0 0-21.183-5.65c-3.676-.95-7.284-1.982-10.876-3.217-5.836-1.988-11.794-3.505-17.754-5.07-12.458-3.272-12.458-3.272-18.25-5.031l-2.14-.643C329 767 329 767 328 764a346 346 0 0 1-.867-8.793l-.24-2.683q-.388-4.355-.768-8.711l-.81-9.094-.543-6.096c-.745-8.378-1.534-16.75-2.334-25.123-1.77-18.685-3.288-37.391-4.813-56.098q-.56-6.858-1.125-13.715l-.189-2.286a1776 1776 0 0 0-2.748-30.088 1288 1288 0 0 1-2.395-26.61l-.221-2.798-.46-5.831c-1.816-23.032-4.007-46.017-6.284-69.007-1.967-19.86-3.832-39.71-5.204-59.622-.946-13.58-2.296-27.113-3.73-40.65l-.256-2.443a975 975 0 0 0-.48-4.48c-.457-4.36-.533-8.449-.533-12.872"/><path fill="#E44C25" d="M745 377h381c-1.16 22.051-1.16 22.051-1.937 31.875l-.225 2.965c-.809 10.4-1.835 20.778-2.838 31.16-2.447 25.427-4.87 50.852-6.937 76.313-1.575 19.382-3.355 38.743-5.194 58.102a6586 6586 0 0 0-5.871 65.415c-1.218 14.326-2.491 28.638-3.975 42.94-1.343 13.057-2.38 26.14-3.447 39.222-.729 8.922-1.496 17.84-2.264 26.758L1092 767l-10.345 2.873a12845 12845 0 0 0-12.085 3.361 3353 3353 0 0 1-21.6 5.948 1785 1785 0 0 0-27.283 7.638 664 664 0 0 1-17.25 4.68c-7.544 1.948-14.998 4.139-22.451 6.41a265 265 0 0 1-15.65 4.238c-5.663 1.446-11.263 3.12-16.865 4.784l-2.616.763-2.323.688c-6.239 1.52-10.719 1.658-16.95-.043l-2.092-.56c-2.23-.601-4.453-1.221-6.678-1.842q-2.325-.635-4.653-1.266c-8.593-2.344-17.149-4.8-25.66-7.43-8.69-2.663-17.481-4.951-26.27-7.264-8.997-2.368-17.964-4.834-26.925-7.336-3.778-1.053-7.559-2.097-11.34-3.142l-6.769-1.875-4.52-1.25A1751 1751 0 0 1 779 767c-1.447-12.833-2.58-25.682-3.63-38.553a2122 2122 0 0 0-2.808-31.572c-1.287-13.406-2.38-26.824-3.437-40.25a8372 8372 0 0 0-4.478-54.58l-.663-7.812q-.463-5.457-.933-10.913l-.278-3.3-.264-3.035-.226-2.639c-.264-2.192-.738-4.21-1.283-6.346-.252-2.72-.467-5.43-.648-8.156l-.354-4.993-.184-2.644c-.898-12.844-1.86-25.663-3.314-38.457-1.184-10.447-2.147-20.897-3-31.375l-.186-2.289q-.375-4.59-.747-9.182a3562 3562 0 0 0-2.13-24.841l-.19-2.168c-.737-8.322-1.5-16.642-2.31-24.957a1545 1545 0 0 1-2.062-23.313l-.266-3.192-.242-3.019-.215-2.658c-.18-3.247-.152-6.503-.152-9.756"/><path fill="#FDD93E" d="m1380.513 412.877 3.416.003 3.905-.004 4.324.01h4.523q6.157.001 12.316.013c4.285.006 8.57.006 12.856.008q12.18.005 24.363.021 13.863.016 27.728.022 28.528.016 57.056.05.017 3.522.027 7.044l.015 3.963c-.066 6.299-.554 12.549-1.065 18.825l-.322 4.111q-.336 4.272-.681 8.544-.435 5.39-.854 10.78c-1.955 25.022-1.955 25.022-3.397 37.167-1.387 11.925-2.136 23.922-3.048 35.89q-.383 4.991-.773 9.98l-.23 3.081-.223 2.857-.19 2.5c-.248 2.164-.713 4.153-1.259 6.258-.18 2.048-.318 4.1-.43 6.152l-.216 3.742-.112 1.991a683 683 0 0 1-2.991 35.949c-1.58 14.656-2.714 29.352-3.893 44.045l-.25 3.09q-.235 2.887-.461 5.773c-.363 4.47-.856 8.84-1.647 13.258a310 310 0 0 0-.375 6.625c-.479 8.865-1.48 17.664-2.466 26.484a624 624 0 0 0-2.424 27.604l-.208 2.826-.164 2.475C1503 746 1503 746 1501 748c-1.69.466-3.405.846-5.125 1.188-18.224 3.984-36.342 9.76-53.937 15.937-4.184 1.411-8.284 2.386-12.625 3.188-8.344 1.55-16.427 3.886-24.57 6.262-8.721 2.52-8.721 2.52-12.805 3.01-3.122.225-3.122.225-5.938 2.415-2.262.414-2.262.414-4.687.625l-2.45.227L1377 781a699366 699366 0 0 1-.436-103.152l-.128-29.986c-.483-112.085-.483-112.085-.494-154.311q0-3.366-.004-6.73c-.013-21.771.224-43.532.746-65.298l.05-2.299c.181-6.17.181-6.17 3.779-6.347"/><path fill="#FDFEFE" d="M366 457h238c-1.147 21.799-1.147 21.799-1.867 29.215l-.24 2.58q-.25 2.69-.506 5.38c-.458 4.825-.902 9.651-1.348 14.477l-.272 2.935c-.811 8.8-1.55 17.605-2.267 26.413-1.266 15.506-2.667 30.999-4.09 46.491-.848 9.25-1.674 18.5-2.41 27.759-.917 11.48-2.102 22.931-3.268 34.387-1.055 10.364-2.05 20.726-2.857 31.113-.584 7.505-1.353 14.866-2.875 22.25-11.463 4.1-23.065 7.434-34.84 10.514-8.867 2.32-17.667 4.777-26.427 7.472-6.362 1.942-12.77 3.579-19.237 5.135-3.793.954-7.491 2.088-11.187 3.363-6.664 1.489-12.293-.1-18.622-2.047q-2.811-.833-5.625-1.664l-2.988-.883c-5.273-1.526-10.58-2.92-15.887-4.327-9.48-2.527-18.902-5.207-28.308-7.995-8.23-2.422-16.515-4.608-24.835-6.703-.91-.231-1.82-.463-2.759-.7-.805-.203-1.611-.404-2.441-.612C387 701 387 701 386 700a188 188 0 0 1-.648-7.355l-.173-2.308q-.186-2.471-.366-4.942c-1.073-14.706-2.324-29.378-3.898-44.038l-.364-3.447-.323-2.964c-.256-3.307-.228-6.63-.228-9.946h48c1.21 3.628 1.449 7.164 1.754 10.95l.197 2.34q.31 3.699.611 7.398l.42 5.017q.514 6.147 1.018 12.295l1.822.44c12.832 3.112 25.56 6.4 38.157 10.375 11.283 3.444 18.901 1.688 30.084-1.565q1.956-.556 3.914-1.107c3.677-1.039 7.35-2.09 11.023-3.143q4.463-1.27 8.938-2.5c1.06-.3 2.121-.598 3.214-.906 3.023-.63 5.769-.704 8.848-.594l.113-3.11c.493-11.926 1.395-23.809 2.387-35.702.066-.796.131-1.592.2-2.412q.286-3.46.581-6.92l.174-2.085c.372-4.298.933-8.489 1.545-12.771H378c-2.328-19.791-2.328-19.791-3.125-29.625l-.262-3.059A183 183 0 0 1 374 553h174v-13c.165-2.895.352-5.754.621-8.637l.195-2.216q.201-2.273.41-4.544c.215-2.325.418-4.65.62-6.976l.4-4.451.183-2.099c.456-4.846.456-4.846 1.571-7.077H369c-2.274-18.191-2.274-18.191-2.625-24.062l-.227-3.536C365.93 469.938 366 463.468 366 457"/><path fill="#FEFEFD" d="M816 457h238c0 9.31-.086 18.228-.937 27.438l-.264 3.06c-.486 5.526-1.11 10.992-1.799 16.502H868c1.1 18.154 1.1 18.154 4 36v13h174c0 8.408-.154 16.323-1.059 24.61l-.329 3.184c-.343 3.32-.696 6.638-1.05 9.956-1.949 18.215-1.949 18.215-3.242 36.484-.348 6.717-1.007 13.39-1.695 20.078-1.22 12.2-2.306 24.407-3.312 36.625l-.202 2.448q-.56 6.807-1.111 13.615a251 251 0 0 1-11.445 3.594l-3.208.918-3.472.988-3.675 1.049a3122 3122 0 0 1-23.51 6.593 9249 9249 0 0 1-11.559 3.193c-6.844 1.89-13.676 3.806-20.475 5.856l-3.32.998q-2.97.9-5.93 1.83c-8.558 2.596-15.237 2.39-23.781-.207l-4.21-1.23-2.456-.724c-4.5-1.304-9.015-2.548-13.53-3.799a7128 7128 0 0 1-18.066-5.032l-13.849-3.873-8.276-2.314-2.663-.745c-6.63-1.848-13.28-3.614-19.945-5.331C838 701 838 701 837 700a274 274 0 0 1-.902-8.879l-.25-2.761q-.398-4.46-.785-8.923l-.54-6.076q-.655-7.379-1.296-14.757-.302-3.464-.608-6.926-.44-4.995-.869-9.99l-.242-2.77-.211-2.531-.177-2.087c-.162-3.096-.12-6.2-.12-9.3h48l1.5 15 .475 4.684.369 3.754.38 3.808c.29 3.945.322 7.8.276 11.754l1.7.083c7.719.556 14.786 2.573 22.175 4.792Q912.931 670.961 920 673l3.204.962 3.054.858 2.637.766c8.15 1.086 16.051-1.141 23.855-3.309l2.97-.802c3.095-.839 6.188-1.688 9.28-2.538q4.682-1.276 9.366-2.547 2.903-.788 5.803-1.586l2.632-.718 2.317-.637C987 663 987 663 989 663l.113-3.836c.428-12.467 1.287-24.867 2.387-37.289l.2-2.276q.285-3.241.581-6.482l.346-3.793C993 606 993 606 994 601H828l-2-25c-.375-4.383-.753-8.764-1.148-13.145l-.296-3.3q-.306-3.43-.616-6.863-.487-5.415-.97-10.831a10426 10426 0 0 0-3.15-34.611l-.549-5.942q-.501-5.42-1.015-10.837l-.46-4.96-.2-2.08c-.805-8.802-1.13-17.586-1.596-26.431"/><path fill="#F16528" d="M936 409h156l-3 31c-.394 5.734-.773 11.45-1.062 17.188q-.197 3.865-.41 7.73c-.055 1.08-.11 2.16-.165 3.274-.307 3.216-.773 6.298-1.331 9.475-1.072 6.234-1.628 12.434-2.067 18.74l-.253 3.417q-.394 5.337-.774 10.676-.389 5.382-.785 10.762-.246 3.332-.481 6.664l-.223 3.037-.19 2.663c-.241 2.211-.688 4.229-1.259 6.374a83 83 0 0 0-.246 4.238l-.1 2.49q-.09 2.52-.172 5.04c-.207 5.087-.692 10.063-1.396 15.107-1.332 9.576-2.18 19.183-3.024 28.813l-.257 2.9c-1.926 21.781-3.414 43.59-4.805 65.412h-2l.048 2.098c.098 7.7-.428 15.23-1.216 22.887-.359 3.49-.698 6.983-1.035 10.476l-.208 2.148c-.81 8.499-1.39 17.012-1.942 25.532l-.217 3.273c-.06.938-.12 1.876-.18 2.842-.27 2.97-.603 5.831-1.25 8.744-2.125 1.25-2.125 1.25-5 2l-3.437 1.125c-3.358.825-6.127 1.043-9.563.875v2a389 389 0 0 1-13.172 3.148c-8.869 1.946-17.595 3.877-26.156 6.946-3.9 1.323-7.876 2.257-11.883 3.195-2.783.671-2.783.671-5.418 1.602-4.923 1.62-9.922 2.916-14.933 4.234l-3.116.84-3.013.793-2.725.723c-2.6.522-4.94.614-7.584.519v2h-6v2q-3.467.791-6.937 1.563l-1.999.458c-1.679.37-3.37.68-5.064.979-1.57-1.57-1.127-3.124-1.13-5.304l-.009-2.771.006-3.015-.003-3.075q0-3.227.006-6.454c.005-3.3 0-6.602-.007-9.902q0-3.129.004-6.256l-.006-3.009.01-2.78.002-2.454C935 730 935 730 936 728l-2-1 3.262-.734 4.426-1.016 2.126-.477c4.523-1.045 8.943-2.29 13.374-3.675 6.988-2.185 14.04-4.06 21.125-5.91 10.5-2.763 20.953-5.65 31.358-8.754 7.736-2.3 15.524-4.381 23.329-6.434l.183-2.23q.858-10.44 1.72-20.876.446-5.365.885-10.731.427-5.184.856-10.368.242-2.927.48-5.854l.303-3.639.263-3.182c.336-3.385.829-6.753 1.31-10.12l2-25 5-55H872l-1-13c-.31-2.524-.64-5.045-1-7.562-1.118-9.437-1.525-18.947-2-28.438h183l1-16 2-31H816v-1h120z"/><path fill="#2B65EF" d="M485 409h155c0 6.902-.085 13.446-.77 20.258l-.244 2.578q-.26 2.73-.524 5.462a1896 1896 0 0 0-4.51 55.091l-.174 2.512q-.16 2.315-.31 4.632c-.21 3.023-.505 5.577-1.468 8.467a90 90 0 0 0-.43 4.277l-.216 2.687-.229 2.973-.527 6.575-.289 3.634c-.564 7.036-1.157 14.07-1.746 21.104q-.388 4.625-.774 9.25l-.196 2.352q-.602 7.23-1.185 14.464l-.783 9.624q-.184 2.263-.363 4.525c-.665 8.357-1.498 16.657-2.586 24.969-.673 5.256-1.016 10.461-1.176 15.754-.262 6.501-.858 12.752-1.96 19.171-1.938 13.08-2.584 26.366-3.146 39.564-.3 6.467-1.048 12.799-1.925 19.21-.485 4-.76 7.97-.969 11.992-.402 7.385-1.325 14.574-2.5 21.875q-2.03.69-4.062 1.375l-2.286.773c-5.35 1.718-10.77 3.153-16.21 4.551-6.936 1.787-13.81 3.67-20.63 5.864a290 290 0 0 1-16.437 4.75l-3.852.988c-3.288.652-6.184.838-9.523.699v2l-2.598.586c-7.22 1.608-7.22 1.608-14.34 3.601-3.15.837-5.817.971-9.062.813v2q-2.841.76-5.687 1.5l-3.2.844c-2.824.595-5.241.784-8.113.656v2c-3.877 1.193-6.916 2-11 2q.176-9.986.372-19.97.065-3.4.125-6.799.088-4.877.187-9.754l.05-3.085.06-2.85.048-2.517C485 730 485 730 486 728l-2-1c11.017-3.204 22.088-6.166 33.187-9.073A1167 1167 0 0 0 546 710q7.187-2.064 14.375-4.125c1.205-.347 2.41-.694 3.652-1.05 5.97-1.711 11.935-3.372 17.973-4.825l.212-2.67c1.57-19.63 3.31-39.233 5.342-58.82.998-9.676 1.87-19.355 2.663-29.05.623-7.6 1.284-15.194 1.967-22.788l.306-3.412.626-6.943c1.534-17.018 3.054-34.037 4.447-51.067 1.04-12.698 2.145-25.39 3.292-38.078l.532-5.905q.37-4.113.746-8.224l.22-2.46.214-2.32.181-1.993c.344-3.1.811-6.183 1.252-9.27H366v7h-1v-8l120-1z"/><path fill="#ECEBEA" d="M816 457h238c0 9.31-.086 18.228-.937 27.438l-.264 3.06c-.486 5.526-1.11 10.992-1.799 16.502H868c1.1 18.154 1.1 18.154 4 36v13h174v13h-1v-11H935v45h59v1H828l-2-25c-.375-4.383-.753-8.764-1.148-13.145l-.296-3.3q-.306-3.43-.616-6.863-.487-5.415-.97-10.831a10426 10426 0 0 0-3.15-34.611l-.549-5.942q-.501-5.42-1.015-10.837l-.46-4.96-.2-2.08c-.805-8.802-1.13-17.586-1.596-26.431"/><path fill="#FEFEFC" d="M1392 463h120c-1.74 41.74-1.74 41.74-4 44-2.495.095-4.962.126-7.457.114h-2.365c-2.592 0-5.184-.009-7.776-.016l-5.376-.005q-7.09-.006-14.18-.024c-5.666-.012-11.331-.017-16.997-.023-8.617-.01-17.233-.029-25.849-.046v68c29.912-2.834 29.912-2.834 59.775-6.136 5.455-.638 10.732-.995 16.225-.864.199 6.067-.165 11.916-.875 17.938-1.284 11.025-1.804 22.091-2.34 33.173-.416 8.28-1.189 16.404-2.285 24.628-.6 4.81-.93 9.632-1.246 14.468l-.176 2.63c-.235 3.575-.466 7.15-.68 10.726-.16 2.653-.338 5.305-.52 7.957l-.132 2.452c-.4 5.6-.4 5.6-2.09 7.687-2.548 2.063-5.496 2.806-8.593 3.716l-2.092.636c-6.684 1.99-13.447 3.673-20.23 5.29-4.082.98-7.843 2.13-11.741 3.699-3.562.816-7.137 1.515-10.723 2.219-3.138.601-3.138.601-5.215 1.816-3.746 1.753-8.045 1.732-12.13 2.088-4.431.461-7.236 1.455-10.932 3.877-2.324.66-2.324.66-4.687 1.063L1402 715l-10 2v-44l28.11-7.028 2.359-.59 4.95-1.237 2.324-.582q2.264-.564 4.527-1.122c2.909-.718 5.77-1.454 8.613-2.402 4.279-1.426 8.627-2.533 12.992-3.664l2.664-.695q3.23-.843 6.461-1.68c.825-4.378 1.17-8.59 1.281-13.043l.056-1.97q.115-4.136.215-8.273.08-3.034.167-6.07l.092-3.645C1467 618 1467 618 1468 615l-2.633.438-3.492.562-3.445.563c-3.191.407-6.218.515-9.43.437v2l-2.016.244c-3.037.37-6.073.75-9.109 1.131l-3.172.383c-5.167.654-9.774 1.527-14.703 3.242-3.275.657-6.57 1.144-9.875 1.625l-2.605.406-2.575.383-2.296.342c-3.536.326-7.098.244-10.649.244z"/><path fill="#EBEAE8" d="M1324 462c28 0 28 0 36 1v254c-6.952-.993-13.617-2.432-20.437-4.062l-1.935-.461c-9.808-2.352-19.315-5.267-28.83-8.62-10.044-3.455-20.313-5.512-30.749-7.411C1276 696 1276 696 1274 695v-2l-1.95-.078c-7.781-.489-14.69-2.406-22.05-4.922-.8-5.602-1.137-11.002-1.098-16.656l.005-2.387c.005-2.486.018-4.971.03-7.457q.008-2.547.014-5.094.017-6.202.049-12.406 2.583.459 5.164.922l2.905.518c9.434 1.802 18.617 4.612 27.832 7.284 8.303 2.384 16.67 4.398 25.099 6.276v2l10 1v2h4z"/><path fill="#ECEAEA" d="M831 625h48l1.5 15 .475 4.684.369 3.754.38 3.808c.29 3.945.322 7.8.276 11.754l1.7.083c7.719.556 14.786 2.573 22.175 4.792 17.738 5.704 17.738 5.704 36.125 7.125-2.052 2.248-3.007 3.002-6 4l1 44 3 1 1-3h13c-2.871 1.914-4.906 2.709-8.187 3.625-.902.26-1.803.52-2.731.79-7.04 1.338-12.726.444-19.457-1.602l-4.21-1.231-2.456-.724c-4.5-1.304-9.015-2.548-13.53-3.799a7128 7128 0 0 1-18.066-5.032l-13.849-3.873-8.276-2.314-2.663-.745c-6.63-1.848-13.28-3.614-19.945-5.331C838 701 838 701 837 700a274 274 0 0 1-.902-8.879l-.25-2.761q-.398-4.46-.785-8.923l-.54-6.076q-.655-7.379-1.296-14.757-.302-3.464-.608-6.926-.44-4.995-.869-9.99l-.242-2.77-.211-2.531-.177-2.087c-.162-3.096-.12-6.2-.12-9.3"/><path fill="#EAEBEB" d="M380 625h48c1.21 3.628 1.449 7.164 1.754 10.95l.197 2.34q.31 3.699.611 7.398l.42 5.017q.514 6.147 1.018 12.295l1.822.44q4.34 1.053 8.678 2.122l3.255.8c5.63 1.405 11.212 2.894 16.76 4.595l3.17.969q2.978.921 5.942 1.889c6.912 2.139 13.157 2.54 20.373 2.185v2l-7 1v47l3 1c-5.915.325-10.68-.83-16.312-2.562q-2.812-.836-5.625-1.665l-2.989-.883c-5.273-1.526-10.58-2.92-15.887-4.327-9.48-2.527-18.902-5.207-28.308-7.995-8.23-2.422-16.515-4.608-24.835-6.703-.91-.231-1.82-.463-2.759-.7-.805-.203-1.611-.404-2.441-.612C387 701 387 701 386 700a188 188 0 0 1-.648-7.355l-.173-2.308q-.186-2.471-.366-4.942c-1.073-14.706-2.324-29.378-3.898-44.038l-.364-3.447-.323-2.964c-.256-3.307-.228-6.63-.228-9.946M367 458q22.635-.07 45.27-.104 10.509-.014 21.019-.047 10.134-.032 20.268-.039 3.875-.004 7.749-.021c3.606-.015 7.212-.017 10.819-.016l3.265-.022 2.966.008 2.586-.005C483 458 483 458 485 460v44H369c-2.725-21.799-2.725-21.799-1-28 .048-2.127.048-2.127-.121-4.328l-.147-2.422-.17-2.5-.158-2.547q-.195-3.102-.404-6.203"/><path fill="#EBEBEB" d="M374 553h173v1h-62v47H378c-2.328-19.791-2.328-19.791-3.125-29.625l-.262-3.059A183 183 0 0 1 374 553"/><path fill="#FEFEFD" d="M935 458h118v30h-2l-1 15H935z"/><path fill="#FCF9FC" d="M939 271h26c7.612 9.532 7.612 9.532 10.14 15.908 1.039 2.527 2.44 4.764 3.86 7.092v2h2l.723-2.031c1.594-3.705 3.61-7.035 5.715-10.469l1.197-1.973q1.112-1.832 2.23-3.662c1.389-2.282 2.76-4.574 4.135-6.865h26v73h-24v-35h-2l-.793 2.168c-1.259 2.953-2.766 5.458-4.52 8.144a323 323 0 0 0-6.5 10.375L981 333h-2a136 136 0 0 1-4.812-7l-1.292-1.965c-3.035-4.637-5.957-9.333-8.896-14.035l-1 34h-24z"/><path fill="#FBF9FC" d="M780 271h25v24h22v-24h24v73h-24v-25h-22v25h-25z"/><path fill="#F9F7FA" d="M523 271h57v21h-33v4h34v49h-59v-23h34v-4h-33z"/><path fill="#FBF9FB" d="M1382 271h58v21h-34v4h34v49h-58v-23h34v-4h-34z"/><path fill="#FBF8FB" d="M453 271h58v21h-34v4h34v49h-58v-23h34v-4h-34z"/><path fill="#EE662B" d="M829 601h165c-.575 11.495-1.182 22.573-2.457 33.945-1.033 9.333-1.758 18.699-2.543 28.055-9.885 3.16-19.855 5.925-29.886 8.574-2.573.682-5.143 1.374-7.714 2.067l-4.959 1.312-2.301.625c-4.151 1.082-7.809 1.646-12.14 1.422l1.473-1.066c2.278-2.885 1.928-5.242 1.96-8.884l.03-2.164c.03-2.31.04-4.619.049-6.929q.023-2.14.05-4.28c.058-5.288.09-10.576.125-15.865L936 602H829z"/><path fill="#2C65ED" d="M378 601h165c-1.15 21.836-1.15 21.836-1.973 30.48l-.264 2.878a4875 4875 0 0 1-.826 8.83l-.564 6.1Q538.692 656.643 538 664l-1.715.397c-12.06 2.805-23.971 5.805-35.808 9.447l-3.063.898-2.658.808C492 676 492 676 485 675v-73H378z"/><path fill="#FBF9FB" d="M384 271h58v24h-34v24h34v25h-58z"/><path fill="#2F67ED" d="M369 504h183l-3 36-1 13-63-1v-47H369z"/><path fill="#E24C25" d="M871 505h178v1H935v46h-62l-2-24-1-6q-.132-3.03-.125-6.062l-.008-3.036C870 510 870 510 871 505"/><path fill="#FDFAFD" d="M862 271h67v24h-22v49h-24v-49h-21z"/><path fill="#F7F4F8" d="M1345 272h25v73h-59v-25h34z"/><path fill="#FBF9FC" d="M1033 271h24v49h35v24h-59z"/><path fill="#E2CC7A" d="m1395.7 460.873 3.081-.009 3.408.007 3.567-.006q4.857-.004 9.713 0c3.382.003 6.765 0 10.147 0q8.523-.003 17.046.005 9.863.006 19.725-.002 8.456-.007 16.913-.003 5.055.003 10.11-.001 5.635-.003 11.271.007l3.402-.007 3.09.009 2.694.001C1512 461 1512 461 1514 462c.449 10.56-.345 20.869-1.437 31.375l-.408 3.946c-1.02 9.407-1.02 9.407-2.155 11.679h-81l1 64c9.656-.604 19.12-1.233 28.688-2.438l3.284-.402c5.275-.654 10.532-1.36 15.778-2.223 9.017-1.475 18.153-2.135 27.25-2.937 1.517 3.034.91 6.074.688 9.375l-.145 2.302c-.368 5.518-.898 11.011-1.48 16.51-.829 7.888-1.432 15.774-1.938 23.688a6104 6104 0 0 1-2.86 42.032q-.265 3.713-.519 7.424c-.24 3.508-.492 7.014-.746 10.52l-.215 3.229-.222 2.985-.184 2.606c-.41 2.524-.931 4.217-2.379 6.329-3.625.75-3.625.75-7 1v2c-5.075 1.263-9.728 2.27-15 2 3.506-2.337 7.076-3.412 11.063-4.625l2.22-.695c5.444-1.68 5.444-1.68 7.717-1.68l.145-1.934q.75-9.976 1.51-19.953l.56-7.444q.404-5.355.812-10.708l.25-3.353c.379-4.929.883-9.735 1.723-14.608.175-2.405.315-4.814.43-7.223l.222-4.33q.166-3.317.322-6.635c.726-15.332 2.363-30.558 4.026-45.812l-2.349.266q-11.03 1.246-22.063 2.472-5.67.63-11.339 1.271-5.484.621-10.97 1.226-2.08.23-4.158.469c-1.96.224-3.922.439-5.884.653-1.11.125-2.22.25-3.364.377-5.28.363-10.581.266-15.873.266v-68l80-1 4-43h-120v164l20-3h8l-4 1v2c-6.065 1.764-11.579 2.131-17.848 2.062l-2.38-.013q-2.886-.02-5.772-.049-.035-32.636-.052-65.27a48924 48924 0 0 0-.023-30.304q-.015-13.202-.02-26.403 0-6.995-.01-13.99a6973 6973 0 0 1-.008-13.15q0-2.422-.006-4.842-.007-3.29-.001-6.58l-.003-3.73c.203-4.513 1.756-3.856 5.823-3.858"/><path fill="#3545C7" d="M294 377h381c0 16.778 0 16.778-.914 22.922q-.282 2.02-.556 4.04l-.276 2.027c-.675 5.34-1.037 10.718-1.458 16.084a3607 3607 0 0 1-.944 11.708l-.204 2.499c-.734 8.904-1.564 17.8-2.39 26.695-1.598 17.2-3.03 34.401-4.219 51.633a426 426 0 0 1-2.57 25.65c-.698 5.569-1.159 11.148-1.594 16.742l-.262 3.25A3191 3191 0 0 0 659 568h-1c-.202-11.885.307-23.621 1.227-35.47q.318-4.128.619-8.259l.4-5.314.183-2.462c.33-4.219.872-8.319 1.571-12.495q.291-3.628.5-7.262l.25-4.138.375-6.459q.184-3.139.375-6.278l.219-3.772C664 473 664 473 665 470c.625-4.548 1.045-9.12 1.5-13.687l.204-2.014a428 428 0 0 0 2.005-31.198l.08-2.808.053-2.452C669 416 669 416 670 415l2-36H297l2 26c.071 6.356.138 12.655 0 19h-1a10545 10545 0 0 1-1.709-16.705q-.29-2.84-.582-5.677-.42-4.092-.834-8.184l-.265-2.542-.243-2.425-.215-2.107c-.2-3.114-.152-6.24-.152-9.36"/><path fill="#CB4B4A" d="M745 377h381c-1.167 22.17-1.167 22.17-2 32.813l-.25 3.345-.25 3.237-.219 2.839c-.3 2.95-.764 5.846-1.281 8.766h-1c0-16.347 1.093-32.678 2-49H747l2 12c.237 2.11.444 4.223.594 6.34l.242 3.3.234 3.438.26 3.668q.27 3.817.53 7.633c.263 3.847.539 7.693.816 11.539.87 12.376 1.653 24.672 1.324 37.082h-1a35627.633 35627.633 0 0 0-1.375-15.687l-.207-2.363c-.793-9.007-1.6-18.013-2.48-27.012a1540 1540 0 0 1-2.063-23.313l-.266-3.192-.242-3.019-.215-2.658c-.18-3.247-.152-6.503-.152-9.756"/><path fill="#C8B259" d="M1324 461h37v257c-9.944 1.105-9.944 1.105-16-1q-2.113-.59-4.234-1.148l-2.243-.61q-2.249-.61-4.5-1.21a140 140 0 0 1-12.273-3.966c-6.233-2.31-12.578-4.052-19-5.754l-3.43-.931c-6.65-1.802-6.65-1.802-13.43-2.963C1283 700 1283 700 1280 698a176 176 0 0 0-7.937-1.937l-4.598-1.051-2.29-.518a691 691 0 0 1-9.05-2.119l-2.805-.664C1251 691 1251 691 1248 689c-.507-1.85-.507-1.85-.68-4.066-.063-.808-.128-1.615-.194-2.446a214 214 0 0 1-.259-11.426l-.003-2.442q0-2.526.006-5.052c.005-2.59 0-5.178-.007-7.767q0-2.463.004-4.926l-.006-2.351c.024-5.409.024-5.409 1.139-6.524a99 99 0 0 1 5.813-.187l3.207-.043c2.9.224 4.528.728 6.98 2.23v3c-5.408-.57-9.632-1.466-15-3l1 44 6 1q2.266.466 4.523.973l2.403.537 2.449.553 2.52.564q3.053.684 6.105 1.373v2l3.234.445c13.361 1.965 25.897 5.65 38.707 9.844 11.261 3.64 22.692 6.36 34.223 9.013 3.301.813 6.567 1.764 9.836 2.698V463l-36-1z"/><path fill="#E8906C" d="M816 456a227284 227284 0 0 1 104.222-.056q17.376-.007 34.752-.021 17.816-.014 35.633-.017 10.013 0 20.025-.012 9.413-.01 18.825-.007 3.465 0 6.931-.006 4.71-.007 9.418-.001l2.81-.01c6.27.016 6.27.016 7.384 1.13.554 11.315-.299 22.708-1 34l-.13 2.16c-.683 11.278-.683 11.278-1.87 14.84l-118-1v-1l-66-1v7h-1v-8h183l1-16 2-31H816z"/><path fill="#CFDDFE" d="M374 553h173v1c-40.293.937-80.573 1.09-120.875 1.063l-3.825-.003q-23.65-.018-47.3-.06l.979 3.745c1.093 4.187 1.378 8.195 1.521 12.505.273 6.128.887 12.011 2.098 18.04C380 592 380 592 380 599h104l1 2H378c-2.328-19.791-2.328-19.791-3.125-29.625l-.262-3.059A183 183 0 0 1 374 553"/><path fill="#CEBE70" d="M1322 462h2v202h-4v-2l-10-1v-2l-1.832-.115c-6.423-.51-12.173-1.85-18.293-3.822a2539 2539 0 0 0-7.519-2.356c-3.426-1.028-6.878-1.873-10.356-2.707l-8-2v-1c8.74-.63 15.79 1.112 24 4 4.36 1.507 8.631 2.62 13.145 3.535C1303 655 1303 655 1304 656c1.347.23 2.704.412 4.063.563L1312 657v2l10 2z"/><path fill="#E8CD65" d="m1393.013 460.877 2.7.003 3.09-.004 3.418.01h3.577q4.868.001 9.737.013c3.388.006 6.777.006 10.166.008q9.63.005 19.262.021 10.963.016 21.925.022 22.556.016 45.112.05v1h-120v165l20-3h8l-4 1v2c-6.065 1.764-11.579 2.131-17.848 2.063l-2.38-.014q-2.886-.02-5.772-.049-.035-32.636-.052-65.27-.007-15.153-.023-30.304-.015-13.201-.02-26.403 0-6.995-.01-13.99-.01-6.575-.008-13.15 0-2.422-.006-4.842-.006-3.29-.001-6.58l-.003-3.73c.165-3.672.165-3.672 3.136-3.854"/><path fill="#28086A" d="M675 377h2c1.461 5.034 1.375 11.25-1 16-.188 2.961-.329 5.91-.437 8.875-.303 7.095-.8 14.128-1.563 21.188a341 341 0 0 0-1.658 22.496c-.211 4.864-.709 9.614-1.342 14.441a98 98 0 0 0 0 5c0 2 0 2-.437 4.875-.67 4.464-.962 8.952-1.282 13.453C669 486 669 486 668 489a374 374 0 0 0-.605 10.371C667.1 504.9 667.1 504.9 666 506a177 177 0 0 0-.062 7.063l.027 3.91L666 520h-2l.035 3.77c.148 22.68.148 22.68-2.035 29.23a330 330 0 0 0-.754 8.824l-.197 2.61q-.31 4.126-.611 8.254l-.42 5.595Q659.503 585.141 659 592h-2c-.206-8.61-.045-16.918 1.15-25.469.802-5.83 1.323-11.664 1.788-17.531.743-9.343 1.597-18.67 2.5-28 1.252-12.993 2.246-25.995 3.18-39.014 1.07-14.827 2.462-29.608 4.024-44.39a556 556 0 0 0 2.139-26.18c.248-3.866.675-7.643 1.219-11.478 1.014-7.638 1.58-15.245 2-22.938"/><path fill="#FDD3C1" d="M870 536c2 4 2 4 2 17h174v13h-1v-11l-2.66.027q-32.01.32-64.02.571c-10.32.082-20.64.17-30.96.277q-13.489.139-26.979.232-7.144.048-14.29.13-6.721.08-13.444.109-2.47.015-4.939.053c-2.245.034-4.49.042-6.735.044l-3.81.034C874 556 874 556 871.589 554.215c-2.372-3.307-2.018-6.566-1.839-10.465l.055-2.258c.047-1.831.118-3.662.195-5.492"/><path fill="#EED158" d="M1416 667c-3.917 2.32-8.173 3.125-12.562 4.125l-2.327.55c-3.096.719-5.922 1.325-9.111 1.325v44l13-4 5.125-1.125c3.91-.64 3.91-.64 6.875-2.875 2.574-.387 5.1-.692 7.688-.937 5.031-.55 9.552-1.228 14.199-3.278 4.092-1.52 8.442-2.162 12.71-3.027 3.578-.797 6.918-1.896 10.36-3.13 3.313-1.019 6.598-1.315 10.043-1.628v2l-8 1v2c-5.903 2.318-11.278 3.393-17.617 3.691-2.646.164-2.646.164-5.383 2.309-2.321.708-4.654 1.38-7 2v1l-1.934.184-2.504.254c-.823.08-1.647.162-2.496.246-2.053.105-2.053.105-3.066 1.316l-7 1-1 1c-2.478.575-4.94 1.088-7.437 1.563l-2.045.42a59 59 0 0 1-11.796 1.056l-2.69-.017L1390 718q-.074-9.317-.11-18.634-.015-3.17-.04-6.34c-.025-3.037-.036-6.072-.045-9.108l-.032-2.87v-2.668l-.014-2.349C1390 674 1390 674 1392 671a77 77 0 0 1 7.625-2.187l2.082-.538c4.868-1.182 9.287-1.438 14.293-1.275"/><path fill="#4672D1" d="M588 632h1c.975 5.987.854 11.133.063 17.125-.822 6.882-1.185 13.56-1.07 20.5.013 5.8-.31 11.615-.993 17.375l-1 1a214 214 0 0 0-1.062 7.063l-.536 3.91L584 702l-3.445.953c-8.489 2.351-16.975 4.706-25.438 7.149q-2.955.853-5.922 1.671c-4.073 1.152-7.63 2.389-11.32 4.477-4.262 2.296-7.22 1.747-11.875.75l-1 3-5-1v2l-5.664.586c-2.9.514-5.547 1.464-8.336 2.414a506 506 0 0 1-7.562 2.063l-1.96.525A506 506 0 0 1 491 728l-2.84.746L486 729l-2-2c11.017-3.204 22.088-6.166 33.187-9.073A1167 1167 0 0 0 546 710q7.187-2.064 14.375-4.125c1.205-.347 2.41-.694 3.652-1.05 5.97-1.711 11.935-3.372 17.973-4.825l.228-2.797c1.777-21.75 3.681-43.482 5.772-65.203"/><path fill="#D3B44A" d="M1503.154 378.928q10.489.016 20.978.022 21.435.015 42.868.05.02 3.1.031 6.2l.018 3.486c-.057 3.858-.452 7.506-1.049 11.314h-1v-19l-5.853.045q-27.364.207-54.729.398-14.067.097-28.133.205-12.27.095-24.541.177-6.488.043-12.977.096-6.126.049-12.252.086-2.23.014-4.46.035c-10.062.091-20.025-.296-30.055-1.042v-1c37.054-.875 74.092-1.134 111.154-1.072"/><path fill="#572933" d="M1203 600h1c2.377 21.93 4.575 43.861 6.463 65.838.641 7.433 1.336 14.86 2.037 22.287l.37 3.943q.864 9.166 1.744 18.332.409 4.274.815 8.547.282 2.95.569 5.897a567 567 0 0 1 1.734 23.793c.21 2.64.583 4.834 1.268 7.363.068 2.416.085 4.833.063 7.25l-.028 3.828L1219 770l-3-1c-.807-5.001-1.17-9.885-1.246-14.953l-.1-4.567q-.071-3.54-.13-7.081c-.142-8.08-.375-15.82-2.04-23.756-.956-5.224-1.113-10.537-1.421-15.83a441 441 0 0 0-3.021-30.452c-1.11-8.442-1.707-16.856-2.042-25.361h-1l-.076-1.984q-.178-4.508-.361-9.016l-.12-3.121c-.181-4.393-.37-8.74-.974-13.098-.513-4.134-.582-8.124-.532-12.281l.014-2.203q.02-2.648.049-5.297"/><path fill="#4A173A" d="M1188 424h1c2.037 20.916 3.852 41.847 5.554 62.793.764 9.352 1.574 18.693 2.536 28.027.662 6.435 1.201 12.837 1.41 19.305.297 7.312.91 14.53 1.84 21.79.59 4.733.74 9.313.66 14.085h-1l-2-10h-1l-.062-1.764q-.327-9.077-.683-18.152-.13-3.389-.25-6.777c-.115-3.245-.242-6.489-.372-9.733l-.101-3.068-.121-2.851-.095-2.51c-.203-2.439-.203-2.439-2.316-5.145-.438-2.88-.774-5.698-1.035-8.594l-.253-2.608q-.265-2.748-.517-5.498c-.252-2.735-.516-5.469-.783-8.202-1.575-16.42-2.602-32.784-2.475-49.286l.014-3.498q.018-4.157.049-8.314"/><path fill="#3441C4" d="M671 408h1a229 229 0 0 1-1.424 30.647c-1.552 13.856-2.807 27.734-3.885 41.634l-.166 2.143q-.825 10.688-1.62 21.38c-1.876 25.147-1.876 25.147-3.472 36.885-.71 5.421-1.134 10.862-1.558 16.311l-.262 3.25A3191 3191 0 0 0 659 568h-1c-.202-11.885.307-23.621 1.227-35.47q.318-4.128.619-8.259l.4-5.314.183-2.462c.33-4.219.872-8.319 1.571-12.495q.291-3.628.5-7.262l.25-4.138.375-6.459q.184-3.139.375-6.278l.219-3.772C664 473 664 473 665 470c.625-4.548 1.045-9.12 1.5-13.687l.204-2.014a428 428 0 0 0 2.005-31.198l.08-2.808.053-2.452C669 416 669 416 670 415q.553-3.492 1-7"/><path fill="#3445C6" d="M307 516c4.894 8.478 4.272 20.543 4.658 30.133.083 4.065.083 4.065 1.342 7.867.212 2.094.37 4.193.5 6.293l.25 3.85.25 4.044q.245 3.93.5 7.856l.219 3.532c.179 2.183.424 4.361.754 6.526.774 5.726 1.093 11.47 1.464 17.235l.524 7.848q.408 6.173.81 12.345.39 5.967.791 11.932l.24 3.762.233 3.45.2 3.052c.022 2.24.022 2.24 1.265 3.275a91 91 0 0 1 .098 5.129l-.01 3.135-.026 3.298-.013 3.311q-.018 4.064-.049 8.127h-1c-2.327-22.11-4.446-44.214-5.96-66.396-.5-7.193-1.085-14.33-2.028-21.479-1.252-9.513-1.905-19.056-2.575-28.625q-.282-3.995-.57-7.99a1707 1707 0 0 1-.348-4.915c-.262-3.664-.586-7.3-1.056-10.943-.435-3.434-.565-6.694-.526-10.152l.028-3.156z"/><path fill="#EAD480" d="M1392 462h122c0 10.705-.257 20.815-1.437 31.375l-.409 3.922c-1.012 9.418-1.012 9.418-2.154 11.703h-80v-1h78l4-45h-120z"/><path fill="#530543" d="M759 544h1l.152 1.95q.357 4.524.723 9.05l.238 3.063a349 349 0 0 0 1.819 17.207c1.157 9.057 1.993 18.135 2.795 27.23l.462 5.197q.48 5.406.953 10.81c.4 4.573.811 9.145 1.224 13.716q.479 5.353.947 10.707.222 2.526.452 5.052c.97 10.71 1.429 21.26 1.235 32.018h-2c-1.126-12.228-2.071-24.41-2.437-36.687-.233-7.193-.859-13.662-2.801-20.618-1.365-6.623-1.657-13.38-2.115-20.117l-.217-3.176c-.06-.943-.12-1.887-.18-2.86-.175-2.462-.175-2.462-.757-4.48-.675-2.825-.716-5.551-.81-8.453l-.127-3.82-.119-4.039-.128-4.09c-.281-9.223-.442-18.434-.309-27.66"/><path fill="#4E2125" d="M1568 378h1c.27 12.321-.274 24.462-1.289 36.745-.572 6.675-.572 6.675-.711 13.368 0 3.107-.654 5.111-2 7.887h-2c.01.849.02 1.698.032 2.573.408 38.325.408 38.325-2.032 52.427l-1 1-.437 3.5-.563 3.5-2 1c-.155-8.142.282-16.037 1.188-24.125a1435 1435 0 0 0 3.019-31.96l.321-3.812q.648-7.68 1.28-15.364c1.28-15.66 2.874-31.197 5.192-46.739"/><path fill="#CBBA60" d="m1253.813 641.813 3.207-.043c2.9.224 4.528.728 6.98 2.23v3c-5.408-.57-9.632-1.466-15-3l1 44 6 1q2.266.466 4.523.973l2.403.537 2.449.553 2.52.564q3.053.684 6.105 1.373v2l3.234.445c15.123 2.225 29.313 6.692 43.766 11.555v1c-6.138-.63-11.912-1.871-17.875-3.437-5.976-1.557-11.914-2.963-18-4.02C1283 700 1283 700 1280 698a176 176 0 0 0-7.937-1.937l-4.598-1.051-2.29-.518a691 691 0 0 1-9.05-2.119l-2.805-.664C1251 691 1251 691 1248 689c-.507-1.85-.507-1.85-.68-4.066-.063-.808-.128-1.615-.194-2.446a214 214 0 0 1-.259-11.426l-.003-2.442q0-2.526.006-5.052c.005-2.59 0-5.178-.007-7.767q0-2.463.004-4.926l-.006-2.351c.03-6.587.47-6.672 6.951-6.712"/><path fill="#FBF4CD" d="M1392 463h20v1h-19v162l12-3c6-.5 6-.5 8.98-.691 5.149-.527 10.05-1.912 15.02-3.309l2.273-.605c3.127-.691 3.127-.691 5.727-2.395 2.024.09 4.045.246 6.063.438l3.347.308 2.59.254v2l-2.016.244c-3.037.37-6.073.75-9.109 1.131l-3.172.383c-5.167.654-9.774 1.527-14.703 3.242-3.275.657-6.57 1.144-9.875 1.625l-2.605.406-2.575.383-2.296.342c-3.536.326-7.098.244-10.649.244z"/><path fill="#EAF7FE" d="M366 457h238v7h-1l-1-5h-1.803c-117.572 0-117.572 0-121.962-.038l-2.97-.025-3.254-.029-3.43-.03-37.461-.323L367 458l.433 3.705.56 4.88.285 2.434c.683 6.013.962 11.928.722 17.981h-1a608 608 0 0 1-1-6.562l-.562-3.692C365.833 470.19 366 463.584 366 457"/><path fill="#33064A" d="m871.303 267.87 3.792-.009 4.07.006 4.193-.003q4.386-.002 8.77.006 5.622.006 11.242-.004 4.326-.005 8.653 0 2.072 0 4.145-.002 2.894-.002 5.788.007l3.325.002C928 268 928 268 931 269v21l2 1v-2h2l-1 5-1-2-1 2h-2c-2.427-7.28-1-15.326-1-23h-67v24h-2c-1.368-8.752-.708-17.226 0-26 3.828-.894 7.376-1.127 11.303-1.13"/><path fill="#FEEADC" d="M816 457h238v15h-1v-14l-233 1c-1.156 3.467-1.328 6.541-1.562 10.188l-.254 3.855L818 476h-1z"/><path fill="#240E68" d="M305 504h1q1.015 11.276 2.026 22.552l.687 7.636c1.271 14.117 2.497 28.235 3.607 42.366.615 7.764 1.331 15.51 2.118 23.259a2518 2518 0 0 1 3.047 33.009q.2 2.33.404 4.66c.777 8.852 1.313 17.623 1.111 26.518h-1c-1.757-13.142-3.268-26.263-4.3-39.482-.453-5.732-.992-11.436-1.7-17.143-2.252-18.53-3.305-36.694-3-55.375h-2q-.437-6.396-.854-12.793a1631 1631 0 0 0-.292-4.328A383 383 0 0 1 305 504"/><path fill="#C85E3A" d="m869 505 27 1v1l-24 1c-2.928 5.857-1.004 14.54 0 20.75 1 7.25 1 7.25 1 23.25h173v1H872l-1-13a409 409 0 0 0-1.062-7.625c-1.27-9.14-1.074-18.157-.938-27.375"/><path fill="#260A66" d="M646 704h1c.603 42.794.603 42.794-3 50-.407 3.569-.77 7.14-1.11 10.715-.89 3.285-.89 3.285-2.968 5.097-3.57 1.452-7.172 2.41-10.922 3.25-5.436 1.23-5.436 1.23-10.703 3.036-2.468.97-4.409 1.165-7.047 1.277-4.54.376-7.836 1.607-11.906 3.57-7.617 3.428-15.053 4.54-23.344 4.055 4.161-2.32 8.516-3.159 13.125-4.219 2.779-.65 2.779-.65 4.797-1.758 2.976-1.465 6.117-2.135 9.328-2.898l2.124-.52c2.913-.712 5.828-1.413 8.743-2.114 8.771-2.114 17.373-4.46 25.883-7.491 1.03-5.435 1.447-10.868 1.875-16.375.833-10.383 1.77-20.755 2.75-31.125l.207-2.192q.582-6.155 1.168-12.308"/><path fill="#B9964B" d="M1547 578c2 2 2 2 2.257 4.117-.074 9.075-.872 18.05-1.738 27.076q-.412 4.318-.811 8.637a11577 11577 0 0 1-1.985 21.095q-.935 9.85-1.848 19.7l-.256 2.752a1022 1022 0 0 0-3.024 42.247c-.1 1.93-.1 1.93-.2 3.9l-.161 3.372c-.232 3.083-.677 6.064-1.234 9.104h-1q.382-11.968.796-23.935.214-6.279.388-12.557a298 298 0 0 1 2.723-32.175c1.64-12.386 1.841-24.855 2.093-37.333h2l-.07-2.797c-.155-11.186.795-22.095 2.07-33.203"/><path fill="#CFAF55" d="M1185 379h133v1l-130 1 1 6q.194 3.322.281 6.648l.114 3.797.105 3.93c.153 9.467.153 9.467 1.027 18.883.603 4.768.58 9.443.535 14.242l-.013 2.781q-.018 3.36-.049 6.719h-1a10992 10992 0 0 1-1.172-13.788q-.196-2.322-.395-4.643c-1.33-15.514-2.361-31.031-3.433-46.569"/><path fill="#3543C1" d="M321 672c2.383 2.383 2.337 3.176 2.633 6.445l.254 2.744.238 2.936.257 2.979c.672 8.318.833 16.555.618 24.896h2l.06 1.822c.404 11.805.948 23.59 1.877 35.366l.227 3.054.238 2.863.203 2.505c.454 2.746 1.102 4.92 2.395 7.39 2.809 1.036 5.226 1.734 8.125 2.313l2.285.51c1.86.411 3.724.797 5.59 1.177v2l5 1c-5.07 1.693-9.258-.237-14.187-1.75l-2.811-.805-2.67-.804-2.446-.734L329 767c-1.294-3.88-1.518-7.742-1.867-11.793l-.24-2.685q-.389-4.354-.768-8.71-.534-6.03-1.07-12.058l-.27-3.04a1690 1690 0 0 0-1.715-18.187l-.422-4.278q-.382-3.848-.784-7.695c-.874-8.88-.995-17.643-.864-26.554"/><path fill="#F6D54D" d="M1429 509h81l-3 3-2-1c-2.338-.121-4.68-.178-7.02-.205l-2.188-.03q-3.587-.047-7.175-.081l-4.969-.063q-6.545-.082-13.089-.153-7.85-.091-15.699-.19c-7.953-.099-15.907-.187-23.86-.278l1 62 6 1v1c-6.152.098-6.152.098-8 0-1-1-1-1-1.12-3.55l.006-3.439v-3.937l.016-4.172.003-3.81c.006-4.718.02-9.436.033-14.154z"/><path fill="#C8A84F" d="M1564 402h1a189 189 0 0 1-.77 19.984l-.244 2.804q-.394 4.482-.799 8.962l-.552 6.264a2385 2385 0 0 1-3.553 36.775c-1.732 17.037-2.865 34.13-4.082 51.211h-1c-.536-24.497 1.252-48.814 4.534-73.07 1.435-10.872 2.238-21.708 2.782-32.657.365-6.928 1.06-13.52 2.684-20.273"/><path fill="#BC4445" d="M775 712h1c1.892 15.01 3.23 29.844 3 45h2v7l2.344.55c9.546 2.305 9.546 2.305 13.468 3.888 6.177 2.475 12.752 3.911 19.188 5.562v2l2.938-.187c4.678-.03 8.737 1.54 13.062 3.187v2c-6.687-.61-12.773-2.241-19.187-4.187l-6.356-1.891-3.236-.967A1410 1410 0 0 0 788 769.562l-2.75-.783L779 767a957 957 0 0 1-3.125-32.562l-.265-3.275c-.49-6.403-.723-12.742-.61-19.163"/><path fill="#FBF6DD" d="M1425 508h3v67h10v1h-11v-2h-2z"/><path fill="#FEF6E0" d="M1510 481h1c-1.408 24.408-1.408 24.408-3 26-2.495.095-4.962.126-7.457.114h-2.365c-2.592 0-5.184-.009-7.776-.016l-5.376-.005q-7.09-.006-14.18-.024-7.228-.014-14.457-.02-14.195-.016-28.389-.049v-2h79l1-12c.318-2.255.662-4.508 1.063-6.75l.535-3.047z"/><path fill="#481920" d="M1551 560h1c.047 5.48.073 10.958.066 16.438l-.001 2.8c-.087 3.69-.419 7.332-.85 10.996-.294 3.782-.204 7.538-.152 11.328.049 5.359-.173 10.324-1.426 15.543-.912 4.144-1.515 8.324-2.137 12.52l-.387 2.604c-1.16 7.909-2.17 15.833-3.113 23.771h-1c-.216-8.655.606-17.203 1.375-25.812l.416-4.756c.773-8.8 1.593-17.596 2.507-26.383.783-7.602 1.401-15.216 2.005-22.833.436-5.429.974-10.818 1.697-16.216"/><path fill="#CDA95D" d="M1191 444h1c1.632 16.408 3.18 32.82 4.563 49.25 1.195 14.164 1.195 14.164 2.562 28.313l.229 2.288c.37 3.695.37 3.695 1.646 7.149.157 3.06.259 6.101.316 9.164l.063 2.75q.097 4.355.184 8.711l.13 5.898q.161 7.239.307 14.477h-1c-1.697-14.366-3.132-28.68-3.937-43.125-.832-14.819-2.188-29.568-3.655-44.336-1.34-13.517-2.632-26.937-2.408-40.539"/><path fill="#630A3D" d="M1111 544h1c.029 3.458.047 6.917.063 10.375l.025 2.984.01 2.852.016 2.634C1112 565 1112 565 1111 567c-.214 2.49-.377 4.962-.5 7.457l-.123 2.242q-.194 3.556-.377 7.114-.184 3.54-.377 7.08-.12 2.205-.23 4.408c-.2 3.657-.611 7.123-1.393 10.699-.294 3.605-.505 7.21-.719 10.82C1107 620 1107 620 1106 623c-.193 1.87-.342 3.745-.465 5.621l-.236 3.334q-.236 3.476-.461 6.953l-.24 3.338-.203 3.053c-.387 2.647-1.05 4.41-2.395 6.701.56-17.711 2.08-35.305 3.733-52.94q.408-4.371.808-8.743c1.418-15.446 2.878-30.887 4.459-46.317"/><path fill="#60093B" d="M1123 408h1l.148 2.266.227 2.984c.07.975.14 1.95.21 2.953.226 2.764.226 2.764 1.58 4.719 1.083 2.694.338 4.18-.551 6.852-1.352 4.9-1.633 10.06-2.177 15.101q-.37 3.403-.753 6.805l-.327 3.023C1122 455 1122 455 1121 456a134 134 0 0 0-.465 5.941l-.236 3.71q-.234 3.87-.461 7.742c-.414 6.442-.973 12.417-2.838 18.607h-1c.42-12.457 1.425-24.784 2.766-37.175 1.112-10.369 2.045-20.747 2.921-31.137l.202-2.387q.56-6.65 1.111-13.301"/><path fill="#E3D07C" d="M1468 615q-.141 6.857-.317 13.715-.057 2.328-.105 4.658a1076 1076 0 0 1-.164 6.725l-.035 2.078c-.14 4.622-.966 8.464-2.379 12.824l-9 1c3-2 3-2 8-4l1-35-8.625 1.875c-7.175 1.535-14.309 2.802-21.59 3.73-2.691.329-2.691.329-4.898.942-2.108.506-3.973.552-6.137.515L1420 624c2.938-1.618 5.583-2.452 8.875-3.062l2.676-.497L1434 620l3.063-.625c3.987-.509 7.923-.455 11.937-.375v-2q2.498-.513 5-1l2.813-.562c3.782-.52 7.37-.465 11.187-.438"/><path fill="#491B22" d="M1535 769v2c-13.477 4.492-13.477 4.492-15.832 5.274a531 531 0 0 0-5.523 1.89c-2.645.836-2.645.836-6.332 1.336-3.443.28-3.443.28-6.313 2.5-2.053.578-2.053.578-4.379 1.035l-2.54.514-2.643.514q-2.597.513-5.192 1.035l-2.322.453c-1.992.386-1.992.386-3.924 1.449-2.672.134-5.323.043-8 0 2.268-2.268 3.46-2.567 6.516-3.367l2.769-.738 2.965-.77 6.082-1.617 2.979-.788a430 430 0 0 0 9.627-2.72c6.411-1.848 12.858-3.556 19.312-5.25l3.11-.82 2.906-.758 2.618-.685C1533 769 1533 769 1535 769"/><path fill="#3160C6" d="M485 602h58c-1.15 20.687-1.15 20.687-1.973 29.383l-.264 2.882q-.41 4.43-.826 8.86l-.564 6.113Q538.692 656.62 538 664h-6l4-2 .076-1.697c.116-2.538.239-5.077.361-7.615l.12-2.67.127-2.569.11-2.364C537 643 537 643 538 640c.291-2.797.54-5.584.754-8.387l.176-2.195c.215-2.701.423-5.403.633-8.106L541 603h-56z"/><path fill="#C34845" d="M997 793c-8.712 2.794-17.492 5.257-26.325 7.636-4.85 1.31-9.69 2.646-14.515 4.048l-2.847.826q-2.676.78-5.348 1.573c-9.545 2.782-15.846 2.82-25.403-.02l-3.083-.881A803 803 0 0 1 912 804v-1c5.789-.207 10.43.408 16 2v2l12 1v-2l1.908-.519 8.654-2.356 3.002-.816c3.97-1.082 7.936-2.165 11.89-3.305 5.223-1.479 10.474-2.843 15.734-4.192l3.271-.865 3.146-.802 2.849-.74c2.576-.41 4.104-.244 6.546.595"/><path fill="#55262D" d="M1211 688h1c1.487 10.636 2.553 21.31 3.563 32l.193 2.026a631 631 0 0 1 1.978 26.646c.21 2.625.586 4.812 1.266 7.328.068 2.416.085 4.833.063 7.25l-.028 3.828L1219 770l-3-1c-.807-5.001-1.17-9.885-1.246-14.953l-.1-4.567q-.071-3.54-.13-7.081c-.144-8.169-.374-16.017-2.058-24.043-.712-3.603-.923-7.193-1.091-10.856l-.115-2.183A252 252 0 0 1 1211 688"/><path fill="#401023" d="M1460 790v2c-5.717 2.45-9.79 3.333-16 3v2h-5v2c-3.774 1.18-7.246 2.083-11.187 2.438-3.704.235-3.704.235-5.77 2.035-2.285 1.708-3.75 2.08-6.543 2.527-3.946.687-7.759 1.578-11.625 2.625-4.809 1.236-8.929 1.66-13.875 1.375 2.897-1.547 5.715-2.603 8.867-3.516l2.9-.844 3.108-.89 3.229-.933c8.862-2.549 17.751-4.993 26.654-7.395q5.28-1.426 10.547-2.906c.835-.235 1.67-.47 2.53-.71q2.355-.664 4.71-1.334C1457.78 790 1457.78 790 1460 790"/><path fill="#3C6AD0" d="M598 532h1c.083 6.197-.2 12.21-.84 18.371l-.532 5.394-.28 2.81c-1.456 14.61-2.798 29.145-3.02 43.835-.095 4.924-.393 8.968-2.328 13.59h-1c-.452-13.576.777-26.965 2.026-40.474.35-3.781.686-7.564 1.02-11.346l.665-7.32.3-3.373c.676-7.228 1.7-14.343 2.989-21.487"/><path fill="#3644C8" d="M653 600h2c.136 8.261-.244 16.356-1.023 24.578l-.322 3.543q-.51 5.565-1.03 11.129l-1.005 10.96-.66 7.2c-1.057 11.524-2.023 23.055-2.96 34.59h-1c-.03-3.187-.047-6.375-.062-9.562l-.026-2.713-.01-2.666-.016-2.428c.14-3.253.65-6.41 1.114-9.631q.27-3.54.465-7.086l.233-4.045.118-2.102c.609-10.728 1.343-21.387 2.743-32.044.777-6.553 1.104-13.135 1.441-19.723"/><path fill="#E8D47C" d="M1472 697v2l-8 1v2c-5.903 2.318-11.278 3.393-17.617 3.691-2.646.164-2.646.164-5.383 2.309-2.672.55-5.308 1.022-8 1.438-5.052.825-9.96 1.726-14.875 3.187-5.33 1.564-10.594 2.065-16.125 2.375 3.368-2.245 5.937-2.708 9.844-3.437 2.428-.509 2.428-.509 5.156-2.563 2.574-.387 5.1-.692 7.688-.937 5.031-.55 9.552-1.228 14.199-3.278 2.957-1.099 5.961-1.657 9.05-2.285 4.876-.993 9.52-2.16 14.196-3.852 3.501-1.216 6.096-1.648 9.867-1.648"/><path fill="#CA4B45" d="M1102 632h1a198 198 0 0 1-1.023 23.703l-.322 3.274q-.509 5.137-1.03 10.273-.672 6.727-1.336 13.453l-.33 3.32c-1.112 11.316-2.055 22.644-2.959 33.977h-1c-.328-12.881.568-25.6 1.6-38.435q.41-5.14.802-10.28c.775-9.942 1.595-19.877 2.668-29.793l.24-2.246c.566-4.998.566-4.998 1.69-7.246"/><path fill="#3D124E" d="M851 271c2.15 3.225 2.283 4.281 2.414 8.023l.118 3.066.093 3.286.113 3.362c.228 7.357.36 14.715.387 22.075l.014 2.637-.006 2.446-.004 2.12c-.137 2.102-.615 3.945-1.129 5.985a99 99 0 0 0-.316 4.547l-.127 2.558-.12 2.645-.13 2.691q-.159 3.28-.307 6.559h-1z"/><path fill="#EAF3FE" d="m369 488 2 1 1 13 113 1v1H369z"/><path fill="#C64743" d="M768 631h1l.184 1.898.254 2.477c.08.812.162 1.624.246 2.46.207 2.208.207 2.208 1.316 4.165.383 2.96.713 5.906 1 8.875l.265 2.676c.69 7.266 1.114 14.531 1.393 21.824l.096 2.367.072 2.058c.149 2.327.149 2.327.683 5.101.482 3.042.605 5.86.589 8.935l-.01 3.223-.025 3.316-.014 3.387A2531 2531 0 0 1 775 712h-1c-1.62-16.598-3.149-33.202-4.487-49.826q-.198-2.463-.402-4.927c-.72-8.755-1.338-17.453-1.111-26.247"/><path fill="#650B39" d="M764 596h1q1.186 12.884 2.347 25.77.538 5.985 1.09 11.97.533 5.796 1.05 11.594.196 2.19.402 4.381c.944 10.124 1.272 20.118 1.111 30.285h-2c-1.24-13.466-2.242-26.899-2.658-40.418l-.096-2.883-.072-2.536c-.102-2.345-.102-2.345-1.174-5.163a207 207 0 0 1-.562-7.687l-.13-2.254c-.402-7.688-.401-15.364-.308-23.059"/><path fill="#49225D" d="M805 319h22v25l-3-2c-.249-2.155-.249-2.155-.074-4.79l.166-2.85.22-2.985.186-3.008c.154-2.456.326-4.912.502-7.367l-17 1 .063 5.563c.005 4.61-.274 8.903-1.063 13.437v2h-2z"/><path fill="#230B64" d="M324 720h1q.857 9.317 1.709 18.634l.582 6.34q.42 4.554.834 9.108l.265 2.87.243 2.668.215 2.349c.125 1.673.152 3.353.152 5.031l3.777.805c5.647 1.255 11.211 2.778 16.786 4.32l3.056.84Q356.31 773.98 360 775v1c-5.56.195-9.62-.38-15-2a693 693 0 0 0-4.332-1.113l-4.48-1.2-2.311-.568c-2.209-.607-2.209-.607-5.877-2.119-1.939-3.612-2.349-6.999-2.633-11.05l-.254-3.537-.238-3.726-.257-3.791c-.578-8.982-.87-17.899-.618-26.896"/><path fill="#3642C4" d="M643 712h2c.21 8.792.02 17.256-1.218 25.976-.856 6.127-1.185 12.225-1.438 18.403-.374 3.936-.71 7-2.344 10.621-2.77 1.413-4.807 2.202-7.75 2.938l-2.133.626c-4.123 1.154-7.803 1.66-12.117 1.436 2.677-3.64 6.31-3.888 10.5-4.562 5.522-.905 5.522-.905 10.5-3.438.537-2.728.813-5.235 1-8l.242-3.35c.271-3.944.518-7.89.758-11.837.593-9.61 1.23-19.215 2-28.813"/><path fill="#3868D4" d="M542 713c-2.384 2.76-4.467 4.058-8 5-2.734-.132-5.291-.54-8-1l-1 3-5-1v2l-5.664.586c-2.9.514-5.547 1.464-8.336 2.414a506 506 0 0 1-7.562 2.063l-1.96.525A506 506 0 0 1 491 728l-2.84.746L486 729l-2-2c11.314-3.295 22.69-6.322 34.092-9.3q3.384-.884 6.767-1.774l2.09-.543c9.401-2.474 9.401-2.474 15.051-2.383"/><path fill="#2E4CBB" d="M429 626h1q.646 6.243 1.282 12.488.216 2.121.436 4.242.317 3.06.626 6.122l.38 3.713c.254 3.164.327 6.262.276 9.435l10 1v2l2.816.34c5.117.73 10.104 1.998 15.122 3.222l2.939.71q3.563.86 7.123 1.728l-2 2c-12.502-.422-26.236-5.98-38-10-1.2-12.35-2.387-24.58-2-37"/><path fill="#CDC06B" d="M1264 647c8.74-.63 15.79 1.112 24 4 4.36 1.507 8.631 2.62 13.145 3.535C1303 655 1303 655 1304 656c1.347.23 2.704.412 4.063.563L1312 657v2l10 2 1-4v6l-13-2v-2l-1.832-.115c-6.423-.51-12.173-1.85-18.293-3.822a2539 2539 0 0 0-7.519-2.356c-3.426-1.028-6.878-1.873-10.356-2.707l-8-2z"/><path fill="#C7A54D" d="M1547 578c2 2 2 2 2.244 4.249-.092 8.003-.645 15.928-1.416 23.889a992 992 0 0 0-.586 6.37c-.617 6.654-1.33 13.073-3.242 19.492h-1v-18h2l-.07-2.797c-.155-11.186.795-22.095 2.07-33.203"/><path fill="#23095F" d="M420 793c6.314.505 12.023 2.096 18.086 3.895 4.124 1.196 8.29 2.155 12.476 3.105 8.228 1.881 16.228 4.3 24.25 6.918 6.861 2.175 12.064 2.439 19.188 1.082l-2 3c-2.504.398-2.504.398-5.562.375l-3.004.023c-3.615-.419-6.589-1.379-10-2.587-4.234-1.41-8.584-2.33-12.934-3.311-5.975-1.348-11.775-2.85-17.566-4.853-2.205-.738-4.403-1.268-6.684-1.71-3.27-.684-6.165-1.638-9.25-2.937a383 383 0 0 0-7-2z"/><path fill="#CD4A44" d="M1120 428h1c.54 14.234-1.095 28.292-2.5 42.438q-.362 3.727-.723 7.455A7584 7584 0 0 1 1116 496h-1c-.193-13.075-.34-26.098.938-39.125l.263-2.688c.652-6.04.652-6.04 1.799-7.187a72 72 0 0 0 .535-4.254l.264-2.588.264-2.72.275-2.733q.337-3.353.662-6.705"/><path fill="#C2A04F" d="M1242 775c17.052 1.052 17.052 1.052 21 5 1.515.232 3.038.412 4.563.563l2.503.253L1272 781v2h7v2l1.758.148c4.645.445 8.924.956 13.242 2.852l2 3c-11.999-2.218-23.594-5.677-35.268-9.18q-3.527-1.058-7.06-2.093c-8.29-2.473-8.29-2.473-11.672-4.727"/><path fill="#D6E3FD" d="M380 625h48v11h-1l-1-9h-44l1 5h-3z"/><path fill="#240B5F" d="M299 436h1l1.786 21.454c.61 7.334 1.221 14.668 1.859 22l.281 3.27q.253 2.933.515 5.864c.443 5.16.637 10.232.559 15.412l-2-1c-.344-2.844-.344-2.844-.5-6.5-.176-4.056-.524-7.829-1.492-11.762-1.254-5.332-1.463-10.59-1.633-16.05l-.115-3.137c-.332-9.85-.358-19.696-.26-29.551"/><path fill="#FBDED4" d="M818 476h2l.184 2.992.254 3.883c.08 1.276.162 2.552.246 3.867.108 3.141.108 3.141 1.316 5.258.032 1.745.011 3.49-.035 5.234-.07 8.32 1.028 16.453 2.056 24.696.737 6.285 1.15 11.835-.021 18.07h-1c-1.65-14.401-3.155-28.79-4.187-43.25l-.254-3.509c-.394-5.762-.65-11.465-.559-17.241"/><path fill="#C74844" d="M755 488c2.421 3.632 2.21 5.383 2.125 9.688l-.055 3.574L757 504h2l.184 3.29.254 4.335.119 2.16.127 2.13.11 1.935c.189 2.278.189 2.278.72 5.013.495 3.195.6 6.18.584 9.41l-.01 3.497-.025 3.605-.014 3.676q-.018 4.475-.049 8.949h-1a32828.224 32828.224 0 0 0-1.58-16.96c-.74-7.952-1.499-15.898-2.347-23.839-.825-7.762-1.36-15.382-1.073-23.201"/><path fill="#472157" d="M995 309h2v35l-2-1-1-25-3 7h-5c1.312-3.582 2.896-6.552 5.063-9.687 2.12-3.068 2.12-3.068 3.937-6.313"/><path fill="#3542BF" d="M459 802c5.37.338 10.34 1.002 15.5 2.563 7.976 2.28 14.275 2.11 21.984-.829 5.025-1.466 10.311-1.5 15.516-1.734-2.794 2.794-6.014 3.143-9.75 4q-2.118.496-4.234 1l-2.077.492c-2.162.536-2.162.536-5.08 1.633-6.922 2.118-12.898-.026-19.609-2l-2.902-.816c-7.089-2.05-7.089-2.05-9.348-4.309"/><path fill="#5A063C" d="M752 464h1l.26 3.21q.48 5.92.967 11.841.21 2.557.416 5.116.298 3.686.603 7.372l.183 2.292c.342 4.104.88 8.107 1.571 12.169q.098 3.688.063 7.375l-.028 3.773L757 520c-1.655-2.935-2.3-5.275-2.562-8.625-.257-3.312-.257-3.312-1.438-6.375-1.526-13.585-1.106-27.356-1-41"/><path fill="#522E64" d="M907 295h22l-1 2-18 1-2 46h-1z"/><path fill="#640C3B" d="M1099 674h1q.037 8.063.055 16.125.008 2.745.02 5.489.017 3.939.023 7.878l.015 2.488c0 5.792 0 5.792-1.113 8.02h-2l.07 2.64c.122 8.024-.458 15.5-2.07 23.36h-1c.471-13.518 1.57-26.946 2.896-40.402A809 809 0 0 0 1099 674"/><path fill="#2D0538" d="M522 319h34v3h-34v6h-1c-.125-6.75-.125-6.75 1-9"/><path fill="#C74845" d="M1056 776c-3.753 2.145-7.793 3.144-11.937 4.25l-4.844 1.32-2.57.7c-4.54 1.25-9.062 2.555-13.586 3.855l-5.31 1.516q-4.178 1.192-8.35 2.406l-2.903.828-2.344.68c-2.431.502-4.68.523-7.156.445 4.095-2.73 7.045-4.406 11.84-5.508l3.47-.8 3.628-.817 3.615-.84C1028.47 782 1028.47 782 1033 782v-2q4.06-1.011 8.125-2l2.305-.578c4.286-1.035 8.124-1.65 12.57-1.422"/><path fill="#FECFBF" d="M831 625h48c.765 5.358 1.093 9.705 1 15h-1l-.586-2.59-.789-3.347-.773-3.34L876 628c-3.436-1.718-7.384-1.12-11.164-1.098l-2.75.005c-2.903.005-5.807.018-8.711.03q-2.949.009-5.898.014-7.239.017-14.477.049v15h-1z"/><path fill="#C19E4E" d="M1558 466h1c.132 7.496-.273 14.881-.875 22.352l-.269 3.454q-.424 5.41-.856 10.819l-.578 7.379q-.705 8.999-1.422 17.996h-1c-.272-12.43.152-24.781.875-37.187l.12-2.168c.429-7.715 1.021-15.15 3.005-22.645"/><path fill="#F4F5F4" d="M935 687h1l1 37 3 1 1-3h13c-6.448 4.299-14.363 5.626-22 5-2.72-.548-5.327-1.236-8-2v-1q2.188-.04 4.375-.062l2.46-.036C933 724 933 724 935 725z"/><path fill="#CA4B45" d="M761 552h2l.184 2.555.254 3.32c.08 1.09.162 2.181.246 3.305.146 2.767.146 2.767 1.316 4.82.154 1.77.25 3.545.316 5.32l.128 3.292.119 3.513.128 3.548c.3 8.78.428 17.543.309 26.327h-1l-.26-3.241q-.479-5.96-.967-11.92-.21-2.579-.416-5.156-.298-3.71-.603-7.417l-.183-2.324c-.316-4.003-.316-4.003-1.09-7.934-.808-3.37-.583-6.812-.543-10.258l.013-2.258q.02-2.745.049-5.492"/><path fill="#E6CE6C" d="M1506 567a98 98 0 0 1-.312 8.125l-.147 2.227c-.341 4.909-.894 9.77-1.541 14.648h-1c-.105-8.07-.034-15.987 1-24l-3.41.438c-9.933 1.22-19.581 1.828-29.59 1.562v-1c7.867-1.35 15.754-2.385 23.688-3.25l2.682-.316 2.517-.262 2.256-.247C1504 565 1504 565 1506 567"/><path fill="#270C70" d="M651 648h1c.922 10.119 1.336 19.49-.735 29.474-1.204 5.838-1.895 11.655-2.452 17.588l-.254 2.692q-.285 3.122-.559 6.246h-1c-.238-9.35.411-18.544 1.227-27.847q.316-3.619.619-7.239l.583-6.827c.415-4.712.961-9.396 1.571-14.087"/><path fill="#2F0734" d="M454 319h33v3h-33z"/><path fill="#CC6448" d="M831 632h1c2.896 30.383 2.896 30.383 4.188 45.5l.253 2.885c.438 5.227.639 10.37.559 15.615h-1c-3.647-21.103-5.599-42.571-5-64"/><path fill="#FCDCC5" d="M994 601h1c.269 9.31-.166 18.47-.937 27.75l-.264 3.21c-.668 7.646-.668 7.646-1.799 11.04a63 63 0 0 0-.062 4.16l.023 2.404.039 2.499q.038 2.454.063 4.91l.035 2.195C992 661 992 661 991 663h-2c.406-13.75 1.286-27.426 2.5-41.125l.2-2.276q.285-3.241.581-6.482l.346-3.793A79 79 0 0 1 994 601"/><path fill="#2D0637" d="M1383 319h33v3h-32z"/><path fill="#5F303A" d="M1195 504h1c1.19 10.868 2.15 21.685 2.603 32.61.292 6.475.913 12.876 1.737 19.305.59 4.733.74 9.313.66 14.085h-1l-2-10h-1q-.431-9.793-.854-19.586l-.292-6.654-.417-9.6-.132-2.974A345 345 0 0 1 1195 504"/><path fill="#280C6E" d="M656 592h1q.04 3.719.063 7.438l.025 2.083c.02 4.416-.306 8.672-.84 13.053-.575 5.636-.614 11.326-.766 16.987-.203 5.776-.852 10.888-2.482 16.439h-1c-.318-12.473.666-24.61 2-37l.578-5.562q.699-6.72 1.422-13.438"/><path fill="#FDE4CE" d="M1039 624h1c.19 7.934-.56 15.675-1.375 23.563a5350 5350 0 0 0-.824 8.257l-.208 2.08c-.991 10.023-1.795 20.061-2.593 30.1h-1c-.03-3.167-.047-6.333-.062-9.5l-.026-2.687c-.015-4.081.047-8.058.592-12.106.435-3.252.57-6.249.496-9.52-.072-3.181-.017-5.136 1-8.187.178-2.227.32-4.457.438-6.687.344-5.368 1.02-10.17 2.562-15.313"/><path fill="#F9ECC1" d="M1420 667v2c-3.445 1.292-6.67 2.156-10.312 2.563-3.484.027-3.484.027-4.688 1.437l-12 1v42l2 1h-3v-44l11.75-3 3.687-.95 2.922-.737 2.984-.762C1416 667 1416 667 1420 667"/><path fill="#FCF7DC" d="M1437 616c2.024.09 4.045.246 6.063.438l3.347.308 2.59.254v2l-2.016.244c-3.037.37-6.073.75-9.109 1.131l-3.172.383c-5.139.65-9.83 1.403-14.703 3.242-6.672 1.15-13.243 1.101-20 1v-1l3.297-.332c8.788-.93 17.184-2.227 25.703-4.668l2.254-.602c3.137-.69 3.137-.69 5.746-2.398"/><path fill="#4C0345" d="M1104 640h1q.039 2.656.063 5.313l.035 2.988C1105 651 1105 651 1104 654a97 97 0 0 0-.281 4.79l-.114 2.855-.105 2.98c-.224 6.194-.515 12.32-1.305 18.47-.26 2.156-.26 2.156-.132 5.342C1102 691 1102 691 1100 693c-.403-28.675-.403-28.675 2-41q.568-3.437 1.125-6.875.434-2.563.875-5.125"/><path fill="#240B61" d="M293 377h1q1.077 9.819 2.136 19.641.362 3.337.728 6.675.525 4.81 1.042 9.622l.332 2.99c.574 5.394.874 10.647.762 16.072h-2c-1.55-9.692-2.414-19.4-3.125-29.187l-.265-3.56A264 264 0 0 1 293 377"/><path fill="#48285A" d="M862 295h21v48h-1l-.076-3.792q-.142-6.966-.296-13.933-.066-3.015-.125-6.029-.088-4.335-.187-8.668l-.05-2.721-.06-2.547-.048-2.234c-.126-2.425-.126-2.425-1.158-6.076h-18z"/><path fill="#C5A251" d="M1198 518h1l.184 2.336.254 3.039c.08.998.162 1.995.246 3.023.166 2.581.166 2.581 1.316 4.602.157 3.06.259 6.101.316 9.164l.063 2.75q.097 4.355.184 8.711l.13 5.898q.161 7.239.307 14.477h-1c-2.308-18.08-3.447-35.774-3-54"/><path fill="#2F0737" d="M547 293h31v3h-31z"/><path fill="#FCF5DC" d="M1466 612v2h3q.037 6.161.055 12.323.008 2.09.02 4.18c.096 15.727.096 15.727-1.075 22.497l-2 1q.177-7.608.372-15.216.066-2.588.125-5.177.088-3.72.187-7.439l.05-2.34c.088-3.18.253-5.79 1.266-8.828l-12 1c3.137-2.092 6.145-4 10-4"/><path fill="#3444C3" d="M580 783c-3.582 1.972-7.36 3.174-11.25 4.375l-2.122.657C555.583 791.4 544.407 794.163 533 796v-2l2.773-.586 3.602-.789 3.586-.773c3.121-.607 3.121-.607 5.039-2.852 2.602-.195 2.602-.195 5.625-.125l3.04.055L559 789v-2h3v-2c6.068-1.229 11.799-2.276 18-2"/><path fill="#3242C1" d="M378 780c6.864-.465 12.115.753 18.625 2.91 5.058 1.634 10.206 2.86 15.375 4.09v2l2.313-.187c3.175.221 3.644.905 5.687 3.187-9.516-1.688-18.718-4.349-28-7l-4.273-1.215Q382.86 782.4 378 781z"/><path fill="#E4CB6B" d="M1416 667c-3.917 2.32-8.173 3.125-12.562 4.125l-2.327.55c-3.096.719-5.922 1.325-9.111 1.325v43h-1v-44c8.784-3.294 15.684-5.339 25-5"/><path fill="#260A5F" d="M576 785v2c-4.726 2-8.971 3.227-14.062 3.938-3.69.538-6.329 1.027-9.375 3.187-4.828 3.259-11 2.176-16.563 1.875 8.221-4.534 18.307-6.13 27.367-8.34a154 154 0 0 0 6.696-1.847C573 785 573 785 576 785"/><path fill="#4E2023" d="M1556 504h1c.25 14.82-.177 29.285-2 44h-2l-1 4c.423-10.86 1.057-21.573 2.523-32.344.679-5.205 1.1-10.422 1.477-15.656"/><path fill="#CE6348" d="M817 476h1q.861 9.18 1.709 18.36l.582 6.238q.42 4.497.834 8.996l.265 2.791c.476 5.231.696 10.362.61 15.615h-1v-6h-2c-1.233-15.35-2.367-30.595-2-46"/><path fill="#CCB752" d="m1253.813 641.813 3.207-.043c2.9.224 4.528.728 6.98 2.23v3c-5.635-.604-10.373-1.593-16-3v36h-1a6590 6590 0 0 1-.055-15.753q-.008-2.682-.02-5.363-.017-3.847-.023-7.693l-.015-2.436c0-1.919.051-3.837.113-5.755 1.79-1.79 4.397-1.173 6.813-1.187"/><path fill="#C4A154" d="M1202 573h1c.912 7.358 1.115 14.59 1 22h2c.965 7.224 1.12 14.28 1.063 21.563l-.014 3.345A2399 2399 0 0 1 1207 628h-1c-4.314-38.51-4.314-38.51-4-55"/><path fill="#3241C1" d="M420 792c5.779-.194 10.679.382 16.25 1.875l2.102.527c3.45.893 6.481 1.998 9.648 3.598 2.608.577 5.22 1.005 7.855 1.438L458 800l1 2c-8.477-.591-16.41-2.817-24.562-5.062l-4.213-1.143Q425.11 794.406 420 793z"/><path fill="#C09D53" d="m1216 731 2 1c.464 2.749.802 5.418 1.063 8.188l.251 2.447a443 443 0 0 1 1.44 18.545c.21 2.397.573 4.517 1.246 6.82l5 1-1 2-7-1-.184-2.922-.254-3.828c-.08-1.253-.162-2.506-.246-3.797-.2-3.22-.2-3.22-.816-5.357-.57-2.39-.712-4.626-.816-7.08l-.127-2.832-.12-2.934-.13-2.98q-.159-3.636-.307-7.27"/><path fill="#C8A64D" d="M1552 534h1c-.397 14.095-.83 28.05-3 42h-1c-.636-34.729-.636-34.729 3-42"/><path fill="#3C1454" d="m992 273 2 1c-9.732 17.195-9.732 17.195-13 22h-2l-2-5h4v-2l2-1c.43-2.06.43-2.06.563-4.437.344-4.376.344-4.376 1.437-6.563h4l1-2h2z"/><path fill="#4E033F" d="M1097 714c1.872 3.148 2.182 5.124 1.793 8.746l-.277 2.768-.329 2.923-.617 5.985-.307 2.916c-.324 3.28-.518 6.56-.7 9.85-.417 5.845-1.788 11.24-3.563 16.812h-1c.326-10.977 1.056-21.456 3.3-32.21 1.09-5.9 1.429-11.798 1.7-17.79"/><path fill="#3F59C4" d="M379 627h1c1.432 8.075 2.373 16.15 3.125 24.313l.265 2.818c.472 5.314.698 10.534.61 15.869h-1c-1.6-5.854-2.552-11.525-3.125-17.562l-.257-2.62c-.699-7.627-.827-15.165-.618-22.818"/><path fill="#FEE6D4" d="M1044 568h1c-.622 11.026-1.498 22.008-2.562 33l-.42 4.406q-.506 5.298-1.018 10.594h-1c-.103-8.495-.041-16.953.438-25.437l.118-2.24c.32-5.2.32-5.2 1.444-6.323.21-1.787.368-3.58.5-5.375.232-3.145.499-5.621 1.5-8.625"/><path fill="#DA713F" d="M1055 457h1c.112 8.352-.007 16.658-.437 25l-.12 2.388c-.253 4.59-.725 9.072-1.443 13.612-2-2-2-2-2.167-4.192l.12-2.726.125-3.033.172-3.236.154-3.272c.43-8.261 1.249-16.38 2.596-24.541"/><path fill="#C39F50" d="M1212 680c3.221 5.584 3.169 11.727 3.316 18.023l.063 2.262q.096 3.544.184 7.09l.13 4.832q.16 5.896.307 11.793h-1c-3.582-30.127-3.582-30.127-3-44"/><path fill="#C84A46" d="M1112 520h1c.25 9.681-.534 19.135-1.5 28.75l-.434 4.46q-.525 5.396-1.066 10.79h-1c-.34-15-.19-29.3 3-44"/><path fill="#3544C1" d="M303 472c1.888 3.507 2.334 6.193 2.563 10.188-.095 3.722-.095 3.722 1.437 6.812.088 2 .107 4.002.098 6.004l-.01 3.682-.026 3.877-.013 3.888q-.018 4.775-.049 9.549h-1q-.652-6.505-1.282-13.013-.215-2.205-.436-4.41c-.892-8.888-1.514-17.63-1.282-26.577"/><path fill="#510338" d="M771 680h1q.649 6.615 1.282 13.232.216 2.247.436 4.493.317 3.246.626 6.494l.38 3.935c.285 3.976.323 7.862.276 11.846-4.86-9.166-5.362-18.002-4.687-28.187.06-1.143.122-2.286.185-3.463q.229-4.177.502-8.35"/><path fill="#D2C276" d="M1248 644h1l1 44 6 1c2.375 1.063 2.375 1.063 4 2q-2.156.079-4.312.125l-2.426.07C1251 691 1251 691 1248 689c-.36-1.949-.36-1.949-.34-4.358v-2.73l.047-2.951.013-3.018c.017-3.19.054-6.379.092-9.568q.024-3.238.042-6.477.05-7.95.146-15.898"/><path fill="#441232" d="M1215 744h2c1.794 8.744 2.237 17.085 2 26l-3-1c-.942-5.527-1.121-10.838-1.062-16.437l.013-2.506q.02-3.03.049-6.057"/><path fill="#E6D27F" d="M1453.063 655.938 1456 656c-2.65 2.65-4.788 2.751-8.437 3.5-3.862.794-6.263 1.3-9.563 3.5-1.93.594-1.93.594-4.09 1.07l-2.377.528-2.47.527c-.812.182-1.623.364-2.46.55-3.69.806-6.788 1.325-10.603 1.325v-2l3.508-.805 4.617-1.07 2.305-.527c4.282-.997 8.399-2.196 12.57-3.598 1.764-.385 3.535-.742 5.313-1.062 3.302-.598 5.536-1.935 8.75-2"/><path fill="#CC5F40" d="M822 532h1q.649 6.615 1.282 13.232.216 2.247.436 4.493.317 3.246.626 6.494l.38 3.935c.285 3.976.323 7.862.276 11.846h-2c-.773-2.78-1.16-5.35-1.281-8.23l-.114-2.436-.105-2.521c-.21-4.906-.463-9.765-1.059-14.641-.507-4.289-.137-7.916.559-12.172"/><path fill="#3F0F23" d="M1568 378h1c.205 10.052.095 19.985-.875 30l-.238 2.587-.254 2.413-.222 2.125C1567 417 1567 417 1565 420c.781-30.54.781-30.54 3-42"/><path fill="#CBE1FC" d="M551 506h1c.461 29.896.461 29.896-2 40l-2 2c.579-14.048 1.621-28.008 3-42"/><path fill="#421426" d="M1300 792c9.492 2.265 18.794 4.722 28 8v1c-9.348.334-18.575-1.84-27-6z"/><path fill="#CBB854" d="M1253 691c7.25-.283 13.91.49 21 2v2l2.266.367 2.984.508 2.953.492c2.57.582 4.518 1.341 6.797 2.633v1c-5.625.25-5.625.25-9-2a173 173 0 0 0-8.062-2l-2.301-.526c-5.526-1.255-11.066-2.434-16.637-3.474z"/><path fill="#BC984E" d="m1425 796 7 1c-2.383 2.383-3.617 2.53-6.875 3.25-6.882 1.618-13.608 3.667-20.357 5.769l-2.522.774-2.26.704C1398 808 1398 808 1395 808l-1-3q3.842-.758 7.688-1.5l2.185-.434c3.765-.722 7.272-1.248 11.127-1.066v-2l9-1z"/><path fill="#23085A" d="M309 556c6.17 11.447 3.108 30.336 3 43h-1c-1.566-14.385-2.266-28.532-2-43"/><path fill="#623237" d="M1188 424h1q.649 6.615 1.282 13.232.216 2.247.436 4.493.318 3.246.626 6.494l.38 3.935c.285 3.976.323 7.862.276 11.846-1.906-3.212-2.223-5.539-2.125-9.25l.055-2.703.07-2.047h-2z"/><path fill="#450546" d="M973 801a231 231 0 0 1-3.312 3.063l-1.864 1.722L966 807l-3-1-1 1c-2.547 1.274-3.428.802-6.125.063l-2.195-.59L952 806c3.298-2.199 6.138-3.083 9.938-4.187l3.714-1.106c3.057-.646 4.502-.827 7.348.293"/><path fill="#260D74" d="M668 456h1q.074 6.162.11 12.323.015 2.09.04 4.18c.096 7.782-.124 14.944-2.15 22.497-.245 1.683-.464 3.37-.625 5.063L666 504h-1c-.202-11.106.363-21.955 1.5-33l.434-4.406q.522-5.298 1.066-10.594"/><path fill="#E4EAF5" d="m455 713 1 2h-3v2l3.25-.187c3.859.192 5.038.584 7.75 3.187-3.185 1.035-5.13.94-8.328.004l-2.422-.693-2.5-.749-2.547-.736c-2.07-.6-4.137-1.212-6.203-1.826 9.21-4.624 9.21-4.624 13-3"/><path fill="#FCE4CD" d="M1014 705c-4.974 2.671-10.352 3.993-15.75 5.563l-3.21.958c-5.699 1.665-11.124 2.957-17.04 3.479 4.982-3.321 9.534-5.293 15.363-6.46 4.235-.867 8.423-1.93 12.621-2.954 2.77-.538 5.207-.7 8.016-.586"/><path fill="#F8D9CB" d="M868 708c4.66-.183 7.738.233 12 2q2.119.329 4.25.563C888 711 888 711 889 712c1.846.395 3.702.742 5.563 1.063l3.066.535L900 714c-3.234 2.29-5.878 2.087-9.7 1.485-4.346-.916-8.564-2.22-12.8-3.548l-2.781-.853Q871.357 710.05 868 709z"/><path fill="#3F1021" d="M1390 810v2c-9.087 4.847-18.3 3.357-28 1v-2l3.727.29 4.898.335 2.45.195c6.083.396 11.016-1.82 16.925-1.82"/><path fill="#D76343" d="m869 505 27 1v1l-24 1c-1.357 2.714-1.112 4.848-1.098 7.883l.01 3.535.025 3.707.014 3.73q.018 4.573.049 9.145h-1c-1.158-10.358-1.074-20.59-1-31"/><path fill="#461723" d="M1250 779c8.164 1.317 16.048 3.246 24 5.5l3.387.934 3.238.91 2.914.818C1286 788 1286 788 1289 790c-6.862-.677-13.383-2.188-20.062-3.875l-3.182-.777c-5.506-1.38-10.623-2.916-15.756-5.348z"/><path fill="#430151" d="M1120 456h1c.41 32.568.41 32.568-3 47h-1c-.247-8.546.186-16.744 1.214-25.214.875-7.25 1.377-14.495 1.786-21.786"/><path fill="#5E3135" d="M1184 379h1c1.644 12.323 2.512 24.579 3 37-3.711-3.711-3.171-8.113-3.316-13.172l-.063-2.068q-.097-3.255-.184-6.51l-.13-4.426A4686 4686 0 0 1 1184 379"/><path fill="#D87D54" d="M1042 597h1v23h-2l.035 2.852c.01 1.245.018 2.49.027 3.773l.036 3.727c-.09 3.325-.461 6.388-1.098 9.648h-1c.455-14.415 1.26-28.68 3-43"/><path fill="#5C2F6C" d="m860 269 4 2h-2v24h-2c-1.368-8.752-.708-17.226 0-26"/><path fill="#FBDAD0" d="M824 541h1c1.95 7.772 2.246 15.138 2.125 23.125l-.027 3.477q-.036 4.2-.098 8.398h-1c-1.333-11.72-2.322-23.198-2-35"/><path fill="#BB9854" d="M1351 806q2.126.214 4.25.438l2.39.246c2.184.292 4.237.737 6.36 1.316v2h22c-3.015 3.015-5.277 2.948-9.5 3.25-8.731-.114-17.342-3.395-25.5-6.25z"/><path fill="#D76C3D" d="M976 718c-5.044 2.843-8.812 4.325-14.562 4.715-3.786.443-7.33 1.62-10.958 2.762-2.638.556-3.941.256-6.48-.477q4.75-1.441 9.5-2.875l2.688-.816q3.9-1.175 7.812-2.309l2.3-.677c3.656-1.009 6.084-1.436 9.7-.323"/><path fill="#EBCE5E" d="M1465 617h1v37c-3.991 1.996-5.7 2.195-10 2 3-2 3-2 8-4z"/><path fill="#360452" d="m1061 287 2 1v14l-3 1-1 2v-13h2z"/><path fill="#3542C1" d="M353 773c8.321-.676 15.182 1.255 23 4v2l2 1c-4.258.412-7.498-.736-11.441-2.133-4.456-1.51-9.011-2.668-13.559-3.867z"/><path fill="#E2CF8B" d="m1468 615-1 33h-1v-31h-11v-1c4.605-1.151 7.94-1 13-1"/><path fill="#3061CF" d="M585 672c1.996 3.322 2.244 5.84 2.188 9.688l-.02 2.949C587 687 587 687 586 688a214 214 0 0 0-1.062 7.063l-.536 3.91L584 702l-3-1h2l.076-1.8c.117-2.734.24-5.467.361-8.2l.12-2.832c.247-5.44.686-10.775 1.443-16.168"/><path fill="#C9A750" d="M1512 771h12c-4.573 2.287-9.096 3.616-14 5l-2.29.672c-3.657 1.014-6.092 1.444-9.71.328h3v-2c2.75-.917 4.36-1.109 7.188-1.062L1512 774z"/><path fill="#54073C" d="M1092 768h-3l-1 3c-3.653 1.96-6.714 2.224-10.812 2.125l-2.958-.055-2.23-.07c2.694-2.694 5.226-3.137 8.875-4.187l3.742-1.106c3.072-.642 4.527-.834 7.383.293"/><path fill="#4D1F2B" d="M1219 770c8.691 1.896 17.344 3.953 26 6v1c-5.987.285-10.257-.24-15.848-2.332-3.16-.98-5.868-.878-9.152-.668z"/><path fill="#250957" d="M332 769c6.595.579 12.69 1.797 19.063 3.563l2.623.708c2.106.57 4.21 1.149 6.314 1.729v1c-5.446.191-9.822-.28-15-2q-3.468-1.066-6.937-2.125-3.032-.937-6.063-1.875z"/><path fill="#560634" d="M780 767c10.067 2.458 20.055 5.079 30 8-8.072 2.69-17.592-1.713-25-5q-2.496-1.009-5-2z"/><path fill="#D5E0F9" d="M386 690h2v7l3-1 .125 1.875L392 700c2.996 1.305 2.996 1.305 6 2-4.742 1.613-7.52-.134-12-2z"/><path fill="#51053B" d="M768 656c2.911 5.434 3.133 10.145 3.063 16.25l-.014 2.258q-.02 2.745-.049 5.492h-2a208 208 0 0 1-1-24"/><path fill="#C04544" d="M848 785c6.573-.365 11.795.864 18 3v2l6 1c-3.14 1.01-5.095.961-8.258.074l-2.394-.666-2.473-.72-2.496-.686c-6.113-1.736-6.113-1.736-8.379-4.002"/><path fill="#36042B" d="m1539 716 2 1c-1.369 22.107-1.369 22.107-3 27h-1c-.219-9.573.001-18.577 2-28"/><path fill="#C2D1F8" d="M430 650h1l1 13 16 4c-4.338 2.17-4.664 2.215-8.937.813l-2.528-.793C434 666 434 666 429 663z"/><path fill="#FCF4D8" d="M1476 695c-3.592 2.394-7.104 3.093-11.25 4-5.304 1.185-10.538 2.456-15.75 4 2.659-3.988 5.73-4.45 10.125-5.687l2.227-.682c5.037-1.459 9.409-1.85 14.648-1.631"/><path fill="#FAD3C7" d="M883 664c8.028.554 15.339 2.657 23 5l-4 2-1-2-2.937.125c-4.424-.009-8.914-.545-13.063-2.125z"/><path fill="#2F035D" d="M670 453c.794 2.788 1.112 5.23 1.063 8.125A364 364 0 0 0 671 467q-.491 3.5-1 7a1292 1292 0 0 0-1 8h-1c-.211-9.896-.1-19.265 2-29"/><path fill="#3D1751" d="M862 295h20v6l-2-4h-18z"/><path fill="#4A1D1F" d="M1460 790v2c-5.717 2.45-9.79 3.333-16 3v2h-8a39.6 39.6 0 0 1 8.258-3.29l2.394-.663 2.473-.672 2.496-.695c6.109-1.68 6.109-1.68 8.379-1.68"/><path fill="#C14848" d="M1091 744h2c.11 7.741-.028 15.314-1 23l-4-1 .96-1.95c1.354-3.973 1.497-7.692 1.665-11.862l.117-2.39c.094-1.932.177-3.865.258-5.798"/><path fill="#CF5A3B" d="m910 666 1 2a78 78 0 0 0 5 2v2c-6.192-.688-12.02-2.28-18-4v-1c4.085-.545 7.873-1 12-1"/><path fill="#F8D84E" d="M1484 567v1q-4.216.764-8.437 1.5l-2.374.434c-5.474.946-10.634 1.2-16.189 1.066v-2c8.23-2.744 18.38-2.151 27-2"/><path fill="#D24C3E" d="M780 757h1v7l2.59.586 3.347.789 3.34.773L793 767l1 2c-5.22.18-9.073-.03-14-2z"/><path fill="#E8DA9B" d="M1428 709c-4.677 2.61-8.922 3.833-14.125 4.75l-2.129.418c-3.499.642-6.368 1.127-9.746-.168l2.52-.586 3.293-.789 3.269-.773c3.073-.74 3.073-.74 5.918-2.852 1.938-.45 1.938-.45 4-.687l2.063-.262C1425 708 1425 708 1428 709"/><path fill="#DAEEFE" d="M595 545h1c.43 10.405-.86 20.677-2 31h-1c-.058-3.854-.094-7.708-.125-11.562l-.05-3.292c-.036-5.79.186-10.687 2.175-16.146"/><path fill="#2C0646" d="M1058 287h1l1 30 3 1-5 1z"/><path fill="#3445C4" d="M618 772c-2.672 2.672-5.125 3.093-8.75 4.125l-3.672 1.07c-3.34.751-6.173.962-9.578.805v-2l2.484-.367 3.266-.508 3.234-.492c12.63-2.65 12.63-2.65 13.016-2.633"/><path fill="#C7DEFB" d="M524 668c-7.35 3.738-15.747 7.292-24 5 3.245-1.037 6.497-2.052 9.75-3.062.92-.295 1.84-.59 2.79-.893l2.694-.83 2.476-.778c2.469-.471 3.932-.235 6.29.563"/><path fill="#FCF7DB" d="M1420 667v2c-3.445 1.292-6.67 2.156-10.312 2.563-3.484.027-3.484.027-4.688 1.437-1.666.04-3.334.043-5 0v-2q3.873-1.008 7.75-2l2.21-.578c3.486-.887 6.421-1.422 10.04-1.422"/><path fill="#CCBB6E" d="M1304 657h8v2l10 2 1-4v6l-13-2v-2l-6-1z"/><path fill="#592C27" d="M1551 560h1c.087 3.625.14 7.25.188 10.875l.076 3.129.029 2.988.048 2.761L1552 582l-3 2c.964-16.893.964-16.893 2-24"/><path fill="#550534" d="M853 788c8.028.554 15.339 2.657 23 5v1c-18.24-1.447-18.24-1.447-23-6"/><path fill="#411325" d="M1521 775c-6.829 3.677-13.366 4.484-21 5l2-1v-2q3.343-.506 6.688-1l3.761-.562c2.91-.359 5.628-.527 8.551-.438"/><path fill="#DD6A33" d="M993 713c-2.565 2.565-4.477 2.54-8 3v2l-9-1c2.407-2.407 4.114-2.791 7.375-3.687l2.898-.825c2.698-.483 4.177-.388 6.727.512"/><path fill="#3451BA" d="m426 711 14.5 3.625L446 716c-1.828 1.055-1.828 1.055-4 2-2.009-.64-4.008-1.31-6-2-2.694-.175-5.296-.093-8 0z"/><path fill="#56043A" d="M1072 774c-6.765 3.704-12.46 4.13-20 4 3.236-1.781 6.427-2.772 10-3.687l3.125-.825c2.764-.47 4.273-.42 6.875.512"/><path fill="#3E5BC5" d="m479 672 1 2c2.126.467 2.126.467 4.563.625l2.503.227L489 675l-1 2c-6.822.386-12.496-.991-19-3v-1z"/><path fill="#D0B045" d="M1543 614h2c1 6.594 1.01 11.618-1 18h-1z"/><path fill="#FADBCE" d="M816 457h4l-.465 2.043c-.62 3.426-.87 6.796-1.097 10.27l-.254 3.8L818 476h-1z"/><path fill="#D3DDF7" d="M420.188 705.938 424 706v2l4 1-1 2a613 613 0 0 1-5.312-.875l-2.989-.492C416 709 416 709 413 707c2.75-.917 4.36-1.109 7.188-1.062"/><path fill="#EDE3C5" d="M1308 703h7v2l3.125-.125c3.743.12 6.412.774 9.875 2.125v2c-6.95-.647-13.382-2.86-20-5z"/><path fill="#FAD9CB" d="M924 675q3.375.212 6.75.438l3.797.246c2.636.241 4.933.559 7.453 1.316-3.644 2.187-5.643 3.218-9.914 2.531A126 126 0 0 1 924 677z"/><path fill="#36044E" d="M908 316h1l.06 1.924c.096 2.9.205 5.8.315 8.701.03.999.062 1.998.094 3.027.203 5.125.517 9.55 2.531 14.348l-4-1z"/><path fill="#340A46" d="m1017 268 4 2v1h-19l1-2 2.809.035 3.629.027 3.62.036c2.83.241 2.83.241 3.942-1.098"/><path fill="#461820" d="M1408 806c-5.275 4.666-11.338 4.115-18 4 2.932-1.554 5.834-2.698 9-3.687l2.563-.825c2.56-.513 3.995-.33 6.437.512"/><path fill="#BB984E" d="M1322 798q3.094.174 6.188.375c1.148.07 2.297.14 3.48.21 3.132.39 5.485 1.096 8.332 2.415v2c-6.304-.584-11.987-2.04-18-4z"/><path fill="#FEF8F0" d="M1040 555h5a609 609 0 0 1 .125 6.313l.07 3.55C1045 568 1045 568 1043 571l.188-2.937c.028-4.679-1.54-8.738-3.188-13.063"/><path fill="#36064F" d="M1039 267v2l3.438-.5c4.533-.576 9-.595 13.562-.5l-1 2h-20v-2c2-1 2-1 4-1"/><path fill="#510641" d="M1051 780c-3.07 3.07-6.78 3.441-11 4-3.562-.375-3.562-.375-6-1 5.358-3.572 10.766-3.122 17-3"/><path fill="#C04444" d="M1074 771c-2.524 2.524-4.424 2.79-7.875 3.625-1.05.26-2.099.52-3.18.79C1060 776 1060 776 1056 776v-3q3.092-.506 6.188-1l3.48-.562c2.836-.373 5.48-.524 8.332-.438"/><path fill="#4A255E" d="M994 311c1 2 1 2 .512 3.805l-.824 2.07-.852 2.148c-.863 2.04-1.78 4.029-2.836 5.977h-4c1.326-3.623 2.943-6.635 5.125-9.812l1.633-2.395z"/><path fill="#FBE2CC" d="m958 672-1 3c-4.96 1.323-9.911 1.089-15 1 2.635-1.4 5.104-2.412 8-3.125l2-.508c2-.367 2-.367 6-.367"/><path fill="#CF4E41" d="M972 798v2c-10.374 3.444-10.374 3.444-16 3 4.253-4.253 10.17-5 16-5"/><path fill="#363FBE" d="M520 796h2v2l10-2c-2.706 2.706-5.271 3.14-8.937 4.188l-3.778 1.105C516 802 516 802 513 801c2.647-1.46 3.894-2 7-2z"/><path fill="#F8D7C7" d="M850 703c6.205.483 12 1.333 18 3v2c-6.304-.584-11.987-2.04-18-4z"/><path fill="#F0E6CC" d="m1249 644 11 2v1c-5.75.125-5.75.125-8-1v2h-2v10h-1z"/><path fill="#D6EAFD" d="M539 644h1q.251 2.938.5 5.875l.281 3.305c.275 3.542-.05 6.346-.781 9.82h-2z"/><path fill="#420155" d="M1107 614h1c.211 7.044.08 13.241-2 20h-1c-.237-7.035.212-13.183 2-20"/><path fill="#3E0151" d="M1125 419c1.125 1.563 1.125 1.563 2 4a118 118 0 0 1-2 7c-.434 2.664-.717 5.314-1 8h-1a768 768 0 0 1-.125-7.25l-.05-2.066c-.037-3.745.096-6.508 2.175-9.684"/><path fill="#270A63" d="M536 797h-2v2c-4.927 1.97-8.78 2.18-14 2 2.288-2.288 3.808-2.755 6.875-3.687l2.617-.825c2.595-.505 4.039-.344 6.508.512"/><path fill="#C09E50" d="M1454 791c-2.679 1.786-4.003 2.392-7.012 3.07l-2.295.528-2.38.527c-.798.182-1.595.364-2.417.55-1.964.448-3.93.887-5.896 1.325 2.542-3.814 3.924-3.748 8.313-4.687l3.425-.762c2.844-.48 5.39-.664 8.262-.551"/><path fill="#D8DFF9" d="M450 717a225 225 0 0 1 4.75-.187l2.672-.106c3.025.344 4.334 1.295 6.578 3.293-3.547 1.251-5.723.723-9.25-.437l-2.703-.872L450 718z"/><path fill="#D7693A" d="m944.188 672.938 2.73.027L949 673c-5.225 3.484-10.813 4.31-17 4 4.097-3.249 6.984-4.13 12.188-4.062"/><path fill="#BDCCF5" d="M428 628h1l1 20-2-4-1-1c.09-2.535.237-5.036.438-7.562l.158-2.155q.196-2.642.404-5.283"/><path fill="#512322" d="M1345 805c2.086.425 4.169.866 6.25 1.313l3.516.738c3.088.906 4.85 1.842 7.234 3.949-4.198.394-7.223-.684-11.035-2.246-1.969-.755-3.912-1.283-5.965-1.754z"/><path fill="#C8A44F" d="m1425 796 7 1c-3.717 3.717-9.48 3.947-14.562 4.125L1415 801c3.135-1.858 5.375-2.201 9-2z"/><path fill="#BD9A51" d="M1226 771c6.199-.38 10.448.165 16 3-3.767 1.38-6.448.596-10.25-.437l-3.266-.872L1226 772z"/><path fill="#CAA854" d="M1531 760h2v10l-8 1v-2l5-1z"/><path fill="#EED358" d="M1464 702c-5.528 2.106-10.07 3.379-16 3v-2q2.873-.545 5.75-1.062l3.234-.598c2.764-.312 4.425-.24 7.016.66"/><path fill="#3656C5" d="M434 662c2.164.023 2.164.023 4.625.375l2.477.336L443 663v2h5c-2.661 1.796-3.781 2.033-7.016 1.54l-3.234-.915-3.266-.898L432 664z"/><path fill="#CDAE4F" d="M1535 727h1c.237 7.035-.212 13.183-2 20h-1a758 758 0 0 1-.062-4.937l-.036-2.778C1533 737 1533 737 1534 736c.232-1.515.412-3.038.563-4.562l.253-2.504z"/><path fill="#FAF5D8" d="M1414 711c-2.362 2.362-3.52 2.48-6.75 3.063l-2.695.496c-6.09 1.052-6.09 1.052-8.555 1.441 2-3 2-3 4.426-3.73l2.887-.457c.944-.16 1.89-.318 2.863-.481 2.641-.31 5.168-.395 7.824-.332"/><path fill="#E5F6FD" d="M581 680h3l-1 16h-1z"/><path fill="#FBDDC8" d="M972 668v2c-4.873 1.591-8.808 2.212-14 2 2.145-2.145 3.017-2.446 5.875-3.125l2.055-.508C968 668 968 668 972 668"/><path fill="#E5CE6B" d="M1449 617h11c-3.269 1.634-5.513 2.48-9 3.188l-2.562.542c-2.468.273-4.096.034-6.438-.73l7-1z"/><path fill="#D36C52" d="M822 532h1l1 16-2 1c-.893-5.936-.97-11.07 0-17"/><path fill="#4C043F" d="m952 806-1 3-3.25.375c-3.129.521-5.085 1.026-7.75 2.625l-1-2c4.644-2.967 7.49-4 13-4"/><path fill="#343CB6" d="M442 798c2.084.114 4.167.242 6.25.375 1.16.07 2.32.14 3.516.21 2.94.377 4.733.892 7.234 2.415v1c-5.853-.515-11.33-1.454-17-3z"/><path fill="#CBA950" d="M1306 793h10v2l4 2c-4.97-.514-9.29-1.234-14-3z"/><path fill="#4E1F2B" d="m1502 779 1 2-10 2-1-3c6.553-2.532 6.553-2.532 10-1"/><path fill="#353DBB" d="M596 779c-5.372 2.629-10.045 3.608-16 4v-2l3.188-.375c3.697-.455 3.697-.455 6.5-1.75 2.612-.988 3.736-.829 6.312.125"/><path fill="#FBD8C1" d="m978 716-16 4 2-4c2.242-.645 2.242-.645 4.875-.812l2.617-.208C974 715 974 715 978 716"/><path fill="#D7794C" d="M1031 701v2q-2.841.76-5.687 1.5l-3.2.844c-2.824.595-5.241.784-8.113.656 2.952-1.575 5.858-2.668 9.063-3.625l2.597-.79C1028 701 1028 701 1031 701"/><path fill="#D96D3D" d="M964 669c-4.943 2.53-9.36 4.332-15 4 3.654-5.568 9.059-4.369 15-4"/><path fill="#C04644" d="M888 796c11.706.41 11.706.41 16 5-5.527-.727-10.7-2.334-16-4z"/><path fill="#C24746" d="M832 781c5.178-.179 9.15-.078 14 2l2 2c-5.508-.59-10.649-1.567-16-3z"/><path fill="#4D0239" d="M810 776c4.97.514 9.29 1.234 14 3-3.704 1.185-7.135 1.351-11 1-1.937-2-1.937-2-3-4"/><path fill="#3462CC" d="M518 720c-5.372 2.629-10.045 3.608-16 4 4.45-4.078 10.21-5.81 16-4"/><path fill="#D3E6FD" d="M552 709c-2.246.7-4.497 1.384-6.75 2.063l-3.797 1.16c-3.127.704-4.548.944-7.453-.223 5.085-3.899 11.935-5.022 18-3"/><path fill="#D8CA8D" d="M1288 698c5.913.643 11.342 2.19 17 4-3.502 1.167-5.442.83-9.062.25l-3.223-.484C1290 701 1290 701 1288 698"/><path fill="#F9CEBC" d="m837 696 1 2c1.888.685 1.888.685 4.063 1.125l2.222.508L846 700v2l2 1-10-2z"/><path fill="#220757" d="M494 809c-2 2-2 2-4.715 2.266l-3.223-.016-3.214.016C480 811 480 811 477 809l2.336.035 3.039.028 3.023.035c7.935-.298 7.935-.298 8.602-.098"/><path fill="#3743C6" d="M631 769c-4.622 2.219-7.768 3.383-13 3 1.994-2.698 3.125-3.027 6.5-3.75 3.5-.25 3.5-.25 6.5.75"/><path fill="#F7D3C8" d="m912 720 13 1-1 3c-4.195-.6-8.01-1.575-12-3z"/><path fill="#F3D54F" d="M1456 655v1q-2.841.76-5.687 1.5l-3.2.844c-2.824.595-5.241.784-8.113.656 4.69-4.69 10.805-4.248 17-4"/><path fill="#D2C071" d="m1290 654 13 1 1 3c-4.764-.715-9.342-1.795-14-3z"/><path fill="#54233E" d="M1205 636h2c1.607 3.215 1.057 6.436 1 10l-3 1z"/><path fill="#F9D7CB" d="m874 626 5 1c1.102 4.41 1.077 8.484 1 13h-1l-.586-2.555-.789-3.32-.773-3.305c-.641-2.924-.641-2.924-2.852-4.82"/><path fill="#F3D74F" d="M1435.563 658.938 1439 659v1c-5.103 1.905-9.463 3.426-15 3v-2l3.438-.437c3.987-.63 4.092-1.555 8.124-1.625"/><path fill="#F0E9D3" d="M1261 647q2.69.425 5.375.875l3.023.492C1272 649 1272 649 1274 651c-2.875.625-2.875.625-6 1l-2-2c-2.57-.648-2.57-.648-5-1z"/><path fill="#401E50" d="M963 309c3.336 2.99 5.15 5.932 7 10h-3v-3h-2c-2-3-2-3-2-7"/><path fill="#5F0B36" d="M876 794c4.97.514 9.29 1.234 14 3v1l-13-1z"/><path fill="#D84E3D" d="M1080 769c-3.162 2.108-4.507 2.338-8.187 2.625l-2.731.227L1067 772c3.644-4.023 7.842-4.785 13-3"/><path fill="#FDFDE9" d="m1450 701-1 2c-7.643 2.38-7.643 2.38-12 1 1.41-.702 2.828-1.386 4.25-2.062l2.39-1.16c2.62-.864 3.809-.708 6.36.222"/><path fill="#E5DBB3" d="m1274 694 13 1 1 3a659 659 0 0 1-5.875-.875l-3.305-.492C1276 696 1276 696 1274 694"/><path fill="#EDE2C8" d="M1256 689h11v2l2 1a348 348 0 0 1-4.25-.375c-.789-.07-1.578-.14-2.39-.21C1260 691 1260 691 1256 689"/><path fill="#CEBB5F" d="M1282 650c1.814.28 3.626.575 5.438.875l3.058.492L1293 652l1 2c-7.75.125-7.75.125-10-1v-2z"/><path fill="#DFEBFD" d="M377 580h1l2 12h-2l-1 4z"/><path fill="#3A1551" d="M966 273c3 0 3 0 4.625 1.188 1.69 2.226 2.005 4.07 2.375 6.812l-2 1z"/><path fill="#240657" d="m408 789 12 3v1q-2.156.079-4.312.125l-2.426.07C411 793 411 793 408 791z"/><path fill="#333AB3" d="M378 780h9l1 3 3 1c-4.571-.549-8.674-1.417-13-3z"/><path fill="#F8CAB5" d="M924 724c5.778-.236 10.513.132 16 2v1c-5.789.207-10.43-.408-16-2z"/><path fill="#3F5BCB" d="M465 722q2.159.427 4.313.875l2.425.492C474 724 474 724 477 726l-11-1z"/><path fill="#CED7F7" d="m390 696 2 1v3l6 2c-4.002 1.6-7.046.293-11-1z"/><path fill="#FEECD7" d="M990 648h1q.29 3.187.563 6.375l.316 3.586C992 661 992 661 991 663h-2z"/><path fill="#E6CE79" d="M1465 648h1v6c-3.402 2.094-6.053 2.18-10 2 3-2 3-2 5.625-2.875 2.561-.878 2.561-.878 3.188-3.25z"/><path fill="#CAA94C" d="M1340 803h11v3c-4.278-.494-7.096-1.048-11-3"/><path fill="#562526" d="m1300 792 12 3v1l-3.812.063-2.145.035C1304 796 1304 796 1301 795z"/><path fill="#B69053" d="m1242 775 10 1v2l4 2c-5.053-.632-9.296-2.135-14-4z"/><path fill="#CBDFFA" d="M568 704c-2.886 1.576-5.533 2.463-8.75 3.125l-2.422.508L555 708l1-3c4.053-.982 7.839-1.082 12-1"/><path fill="#CC5D3E" d="m837 700 13 3v1h-13z"/><path fill="#410142" d="M773 716c2.6 3.9 2.15 7.474 2 12h-2c-1.532-4.084-.63-7.795 0-12"/><path fill="#D1E1FA" d="m437 665 11 2c-5.232 2.616-6.597 1.62-12 0z"/><path fill="#5F0B38" d="M973 801c-2 2-2 2-4.164 2.195l-2.461-.07-2.477-.055L962 803c4.012-2.675 6.366-3.49 11-2"/><path fill="#3E0F27" d="m1250 779 11 2v2c-3.95-.551-7.35-1.39-11-3z"/><path fill="#F8CBAF" d="M954 722c-3.004 2.003-4.71 2.493-8.187 3.125l-2.731.508L941 726c2-3 2-3 4.813-3.687 2.761-.271 5.416-.395 8.187-.313"/><path fill="#FEF7E6" d="M941 722h8v1l-3.437.938c-3.35.691-3.35.691-4.563 2.062q-3.5.062-7 0v-1h6z"/><path fill="#FBF8E1" d="M1466 612v2l2 1-12 1c3.137-2.092 6.145-4 10-4"/><path fill="#550434" d="M1032 785c-3.204 2.136-4.02 2.231-7.687 2.125l-2.45-.055L1020 787c4.34-2.215 7.194-3.545 12-2"/><path fill="#D3B350" d="m1509 774-3 1v2l-8 1 3-1v-2c2.928-.976 4.956-1.082 8-1"/><path fill="#D66D40" d="M993 713c-2 2-2 2-4.164 2.195l-2.461-.07-2.477-.055L982 715c4-2.069 6.564-3.377 11-2"/><path fill="#FDD5BC" d="M1033 690h1v10l-5 1v-2l3-1z"/><path fill="#D7EAFB" d="M540 632h3c.37 4.554.37 4.554-1.5 6.813L540 640z"/><path fill="#441829" d="M1561 457h1l1 11-1-4h-2c-.043-2-.04-4 0-6z"/><path fill="#51013E" d="M900 801c6.152.586 6.152.586 8 1l1 2-9-1z"/><path fill="#D5B746" d="m1319 794 6 2v2h-5v-2l-2-1z"/><path fill="#CCB745" d="M1339 714c6.523-.37 6.523-.37 8.938 1.5L1349 717c-7.75-.75-7.75-.75-10-3"/><path fill="#3D6CD0" d="M536 656c1.765 3.088 2 4.233 2 8h-6l4-2z"/><path fill="#CAB651" d="M1304 657h8v2l2 1c-7.75-.75-7.75-.75-10-3"/><path fill="#420057" d="m1108 602 2 1c-.75 6.625-.75 6.625-3 10-.143-7.429-.143-7.429 1-11"/><path fill="#3E0C56" d="m970 320 2 2c-.375 2.625-.375 2.625-1 5h-3c.875-5.875.875-5.875 2-7"/><path fill="#C6A152" d="m1332 800 8 1v2l-8-1z"/><path fill="#542525" d="m1470 787-1 3h-9c3.514-1.757 6.104-3 10-3"/><path fill="#421130" d="m1219 770 7 1v2l-6 1z"/><path fill="#3959D2" d="m426 711 6 1 1 3-5 1z"/><path fill="#C9DAF6" d="m448 668 8 1c-3.228 2.152-4.284 2.2-8 2z"/><path fill="#EDE5CB" d="m1314 661 6 1v2l3 1c-6.75-.875-6.75-.875-9-2z"/><path fill="#EADCEE" d="m993 274 2 3c-2.625 4.875-2.625 4.875-6 6 1.199-3.083 2.477-6.063 4-9"/><path fill="#EADCE9" d="m965 272 4 5-4 2c-.934-3.01-1.044-3.867 0-7"/></svg>